<mxfile host="app.diagrams.net" agent="Mozilla/5.0 (Macintosh; Intel Mac OS X 10_15_7) AppleWebKit/537.36 (KHTML, like Gecko) Chrome/138.0.0.0 Safari/537.36" version="27.2.0">
  <diagram id="R2lEEEUBdFMjLlhIrx00" name="Page-1">
    <mxGraphModel dx="6526" dy="1974" grid="1" gridSize="10" guides="1" tooltips="1" connect="1" arrows="1" fold="1" page="1" pageScale="1" pageWidth="850" pageHeight="1100" math="0" shadow="0" extFonts="Permanent Marker^https://fonts.googleapis.com/css?family=Permanent+Marker">
      <root>
        <mxCell id="0" />
        <mxCell id="1" parent="0" />
        <mxCell id="XI2xmRr-VkAx-h7ioAOE-386" value="password_resets" style="whiteSpace=wrap;html=1;align=center;" parent="1" vertex="1">
          <mxGeometry x="-4680.9" y="620" width="100" height="40" as="geometry" />
        </mxCell>
        <mxCell id="XI2xmRr-VkAx-h7ioAOE-387" value="email" style="ellipse;whiteSpace=wrap;html=1;align=center;fontStyle=4;" parent="1" vertex="1">
          <mxGeometry x="-4890.9" y="560" width="100" height="40" as="geometry" />
        </mxCell>
        <mxCell id="XI2xmRr-VkAx-h7ioAOE-396" value="" style="endArrow=none;html=1;rounded=0;entryX=1;entryY=1;entryDx=0;entryDy=0;exitX=0.25;exitY=0;exitDx=0;exitDy=0;" parent="1" source="XI2xmRr-VkAx-h7ioAOE-386" target="XI2xmRr-VkAx-h7ioAOE-387" edge="1">
          <mxGeometry width="50" height="50" relative="1" as="geometry">
            <mxPoint x="-4620.9" y="640" as="sourcePoint" />
            <mxPoint x="-4690.9" y="640" as="targetPoint" />
          </mxGeometry>
        </mxCell>
        <mxCell id="XI2xmRr-VkAx-h7ioAOE-397" value="created_at" style="ellipse;whiteSpace=wrap;html=1;align=center;" parent="1" vertex="1">
          <mxGeometry x="-4890.9" y="660" width="100" height="40" as="geometry" />
        </mxCell>
        <mxCell id="XI2xmRr-VkAx-h7ioAOE-398" value="token" style="ellipse;whiteSpace=wrap;html=1;align=center;" parent="1" vertex="1">
          <mxGeometry x="-4890.9" y="610" width="100" height="40" as="geometry" />
        </mxCell>
        <mxCell id="XI2xmRr-VkAx-h7ioAOE-399" value="" style="endArrow=none;html=1;rounded=0;entryX=1;entryY=0;entryDx=0;entryDy=0;exitX=0.25;exitY=1;exitDx=0;exitDy=0;" parent="1" source="XI2xmRr-VkAx-h7ioAOE-386" target="XI2xmRr-VkAx-h7ioAOE-397" edge="1">
          <mxGeometry width="50" height="50" relative="1" as="geometry">
            <mxPoint x="-4633.9" y="730" as="sourcePoint" />
            <mxPoint x="-4730.9" y="834" as="targetPoint" />
          </mxGeometry>
        </mxCell>
        <mxCell id="XI2xmRr-VkAx-h7ioAOE-400" value="" style="endArrow=none;html=1;rounded=0;entryX=1;entryY=0.5;entryDx=0;entryDy=0;exitX=0;exitY=0.5;exitDx=0;exitDy=0;" parent="1" source="XI2xmRr-VkAx-h7ioAOE-386" target="XI2xmRr-VkAx-h7ioAOE-398" edge="1">
          <mxGeometry width="50" height="50" relative="1" as="geometry">
            <mxPoint x="-4655.9" y="670" as="sourcePoint" />
            <mxPoint x="-4770.9" y="706" as="targetPoint" />
          </mxGeometry>
        </mxCell>
        <mxCell id="XI2xmRr-VkAx-h7ioAOE-401" value="migraions" style="whiteSpace=wrap;html=1;align=center;" parent="1" vertex="1">
          <mxGeometry x="-4680.9" y="770" width="100" height="40" as="geometry" />
        </mxCell>
        <mxCell id="XI2xmRr-VkAx-h7ioAOE-402" value="email" style="ellipse;whiteSpace=wrap;html=1;align=center;fontStyle=4;" parent="1" vertex="1">
          <mxGeometry x="-4890.9" y="720" width="100" height="40" as="geometry" />
        </mxCell>
        <mxCell id="XI2xmRr-VkAx-h7ioAOE-403" value="" style="endArrow=none;html=1;rounded=0;entryX=1;entryY=1;entryDx=0;entryDy=0;exitX=0.25;exitY=0;exitDx=0;exitDy=0;" parent="1" source="XI2xmRr-VkAx-h7ioAOE-401" target="XI2xmRr-VkAx-h7ioAOE-402" edge="1">
          <mxGeometry width="50" height="50" relative="1" as="geometry">
            <mxPoint x="-4620.9" y="790" as="sourcePoint" />
            <mxPoint x="-4690.9" y="790" as="targetPoint" />
          </mxGeometry>
        </mxCell>
        <mxCell id="XI2xmRr-VkAx-h7ioAOE-404" value="batch" style="ellipse;whiteSpace=wrap;html=1;align=center;" parent="1" vertex="1">
          <mxGeometry x="-4890.9" y="820" width="100" height="40" as="geometry" />
        </mxCell>
        <mxCell id="XI2xmRr-VkAx-h7ioAOE-405" value="migration" style="ellipse;whiteSpace=wrap;html=1;align=center;" parent="1" vertex="1">
          <mxGeometry x="-4890.9" y="770" width="100" height="40" as="geometry" />
        </mxCell>
        <mxCell id="XI2xmRr-VkAx-h7ioAOE-406" value="" style="endArrow=none;html=1;rounded=0;entryX=1;entryY=0;entryDx=0;entryDy=0;exitX=0.25;exitY=1;exitDx=0;exitDy=0;" parent="1" source="XI2xmRr-VkAx-h7ioAOE-401" target="XI2xmRr-VkAx-h7ioAOE-404" edge="1">
          <mxGeometry width="50" height="50" relative="1" as="geometry">
            <mxPoint x="-4633.9" y="880" as="sourcePoint" />
            <mxPoint x="-4730.9" y="984" as="targetPoint" />
          </mxGeometry>
        </mxCell>
        <mxCell id="XI2xmRr-VkAx-h7ioAOE-407" value="" style="endArrow=none;html=1;rounded=0;entryX=1;entryY=0.5;entryDx=0;entryDy=0;exitX=0;exitY=0.5;exitDx=0;exitDy=0;" parent="1" source="XI2xmRr-VkAx-h7ioAOE-401" target="XI2xmRr-VkAx-h7ioAOE-405" edge="1">
          <mxGeometry width="50" height="50" relative="1" as="geometry">
            <mxPoint x="-4655.9" y="820" as="sourcePoint" />
            <mxPoint x="-4770.9" y="856" as="targetPoint" />
          </mxGeometry>
        </mxCell>
        <mxCell id="XI2xmRr-VkAx-h7ioAOE-408" value="categories" style="whiteSpace=wrap;html=1;align=center;" parent="1" vertex="1">
          <mxGeometry x="-4680.9" y="400" width="100" height="40" as="geometry" />
        </mxCell>
        <mxCell id="XI2xmRr-VkAx-h7ioAOE-409" value="id" style="ellipse;whiteSpace=wrap;html=1;align=center;fontStyle=4;" parent="1" vertex="1">
          <mxGeometry x="-4880.9" y="250" width="100" height="40" as="geometry" />
        </mxCell>
        <mxCell id="XI2xmRr-VkAx-h7ioAOE-410" value="updated_at" style="ellipse;whiteSpace=wrap;html=1;align=center;" parent="1" vertex="1">
          <mxGeometry x="-4880.9" y="500" width="100" height="40" as="geometry" />
        </mxCell>
        <mxCell id="XI2xmRr-VkAx-h7ioAOE-411" value="created_at" style="ellipse;whiteSpace=wrap;html=1;align=center;" parent="1" vertex="1">
          <mxGeometry x="-4880.9" y="450" width="100" height="40" as="geometry" />
        </mxCell>
        <mxCell id="XI2xmRr-VkAx-h7ioAOE-412" value="description" style="ellipse;whiteSpace=wrap;html=1;align=center;" parent="1" vertex="1">
          <mxGeometry x="-4880.9" y="400" width="100" height="40" as="geometry" />
        </mxCell>
        <mxCell id="XI2xmRr-VkAx-h7ioAOE-413" value="name" style="ellipse;whiteSpace=wrap;html=1;align=center;" parent="1" vertex="1">
          <mxGeometry x="-4880.9" y="350" width="100" height="40" as="geometry" />
        </mxCell>
        <mxCell id="XI2xmRr-VkAx-h7ioAOE-414" value="images" style="ellipse;whiteSpace=wrap;html=1;align=center;" parent="1" vertex="1">
          <mxGeometry x="-4880.9" y="300" width="100" height="40" as="geometry" />
        </mxCell>
        <mxCell id="XI2xmRr-VkAx-h7ioAOE-415" value="" style="endArrow=none;html=1;rounded=0;exitX=0.112;exitY=0.004;exitDx=0;exitDy=0;exitPerimeter=0;" parent="1" source="XI2xmRr-VkAx-h7ioAOE-408" target="XI2xmRr-VkAx-h7ioAOE-414" edge="1">
          <mxGeometry width="50" height="50" relative="1" as="geometry">
            <mxPoint x="-4510.9" y="90" as="sourcePoint" />
            <mxPoint x="-4620.9" y="350" as="targetPoint" />
          </mxGeometry>
        </mxCell>
        <mxCell id="XI2xmRr-VkAx-h7ioAOE-416" value="" style="endArrow=none;html=1;rounded=0;exitX=0.94;exitY=0.74;exitDx=0;exitDy=0;exitPerimeter=0;entryX=0.185;entryY=0.004;entryDx=0;entryDy=0;entryPerimeter=0;" parent="1" source="XI2xmRr-VkAx-h7ioAOE-409" target="XI2xmRr-VkAx-h7ioAOE-408" edge="1">
          <mxGeometry width="50" height="50" relative="1" as="geometry">
            <mxPoint x="-4660.9" y="430" as="sourcePoint" />
            <mxPoint x="-4650.9" y="390" as="targetPoint" />
          </mxGeometry>
        </mxCell>
        <mxCell id="XI2xmRr-VkAx-h7ioAOE-417" value="" style="endArrow=none;html=1;rounded=0;exitX=1;exitY=0;exitDx=0;exitDy=0;entryX=0.092;entryY=0.999;entryDx=0;entryDy=0;entryPerimeter=0;" parent="1" source="XI2xmRr-VkAx-h7ioAOE-410" target="XI2xmRr-VkAx-h7ioAOE-408" edge="1">
          <mxGeometry width="50" height="50" relative="1" as="geometry">
            <mxPoint x="-4730.9" y="380" as="sourcePoint" />
            <mxPoint x="-4690.9" y="450" as="targetPoint" />
          </mxGeometry>
        </mxCell>
        <mxCell id="XI2xmRr-VkAx-h7ioAOE-418" value="" style="endArrow=none;html=1;rounded=0;exitX=0.991;exitY=0.348;exitDx=0;exitDy=0;entryX=0;entryY=0.75;entryDx=0;entryDy=0;exitPerimeter=0;" parent="1" source="XI2xmRr-VkAx-h7ioAOE-411" target="XI2xmRr-VkAx-h7ioAOE-408" edge="1">
          <mxGeometry width="50" height="50" relative="1" as="geometry">
            <mxPoint x="-4660.9" y="476" as="sourcePoint" />
            <mxPoint x="-4600.9" y="440" as="targetPoint" />
          </mxGeometry>
        </mxCell>
        <mxCell id="XI2xmRr-VkAx-h7ioAOE-419" value="" style="endArrow=none;html=1;rounded=0;entryX=1;entryY=0.5;entryDx=0;entryDy=0;exitX=0;exitY=0.5;exitDx=0;exitDy=0;" parent="1" source="XI2xmRr-VkAx-h7ioAOE-408" target="XI2xmRr-VkAx-h7ioAOE-412" edge="1">
          <mxGeometry width="50" height="50" relative="1" as="geometry">
            <mxPoint x="-4690.9" y="420" as="sourcePoint" />
            <mxPoint x="-4760.9" y="420" as="targetPoint" />
          </mxGeometry>
        </mxCell>
        <mxCell id="XI2xmRr-VkAx-h7ioAOE-420" value="" style="endArrow=none;html=1;rounded=0;exitX=0;exitY=0.25;exitDx=0;exitDy=0;entryX=0.979;entryY=0.657;entryDx=0;entryDy=0;entryPerimeter=0;" parent="1" source="XI2xmRr-VkAx-h7ioAOE-408" target="XI2xmRr-VkAx-h7ioAOE-413" edge="1">
          <mxGeometry width="50" height="50" relative="1" as="geometry">
            <mxPoint x="-4570.9" y="460" as="sourcePoint" />
            <mxPoint x="-4760.9" y="379" as="targetPoint" />
          </mxGeometry>
        </mxCell>
        <mxCell id="XI2xmRr-VkAx-h7ioAOE-452" value="carts" style="whiteSpace=wrap;html=1;align=center;" parent="1" vertex="1">
          <mxGeometry x="-4690.9" y="70" width="100" height="40" as="geometry" />
        </mxCell>
        <mxCell id="XI2xmRr-VkAx-h7ioAOE-453" value="id" style="ellipse;whiteSpace=wrap;html=1;align=center;fontStyle=4;" parent="1" vertex="1">
          <mxGeometry x="-4890.9" y="-120" width="100" height="40" as="geometry" />
        </mxCell>
        <mxCell id="XI2xmRr-VkAx-h7ioAOE-454" value="updated_at" style="ellipse;whiteSpace=wrap;html=1;align=center;" parent="1" vertex="1">
          <mxGeometry x="-4890.9" y="180" width="100" height="40" as="geometry" />
        </mxCell>
        <mxCell id="XI2xmRr-VkAx-h7ioAOE-455" value="created_at" style="ellipse;whiteSpace=wrap;html=1;align=center;" parent="1" vertex="1">
          <mxGeometry x="-4890.9" y="130" width="100" height="40" as="geometry" />
        </mxCell>
        <mxCell id="XI2xmRr-VkAx-h7ioAOE-456" value="price" style="ellipse;whiteSpace=wrap;html=1;align=center;" parent="1" vertex="1">
          <mxGeometry x="-4890.9" y="30" width="100" height="40" as="geometry" />
        </mxCell>
        <mxCell id="XI2xmRr-VkAx-h7ioAOE-457" value="product_id" style="ellipse;whiteSpace=wrap;html=1;align=center;" parent="1" vertex="1">
          <mxGeometry x="-4890.9" y="-20" width="100" height="40" as="geometry" />
        </mxCell>
        <mxCell id="XI2xmRr-VkAx-h7ioAOE-458" value="cashier_id" style="ellipse;whiteSpace=wrap;html=1;align=center;" parent="1" vertex="1">
          <mxGeometry x="-4890.9" y="-70" width="100" height="40" as="geometry" />
        </mxCell>
        <mxCell id="XI2xmRr-VkAx-h7ioAOE-459" value="" style="endArrow=none;html=1;rounded=0;exitX=0.112;exitY=0.004;exitDx=0;exitDy=0;exitPerimeter=0;" parent="1" source="XI2xmRr-VkAx-h7ioAOE-452" target="XI2xmRr-VkAx-h7ioAOE-458" edge="1">
          <mxGeometry width="50" height="50" relative="1" as="geometry">
            <mxPoint x="-4520.9" y="-240" as="sourcePoint" />
            <mxPoint x="-4630.9" y="20" as="targetPoint" />
          </mxGeometry>
        </mxCell>
        <mxCell id="XI2xmRr-VkAx-h7ioAOE-460" value="" style="endArrow=none;html=1;rounded=0;exitX=0.94;exitY=0.74;exitDx=0;exitDy=0;exitPerimeter=0;entryX=0.185;entryY=0.004;entryDx=0;entryDy=0;entryPerimeter=0;" parent="1" source="XI2xmRr-VkAx-h7ioAOE-453" target="XI2xmRr-VkAx-h7ioAOE-452" edge="1">
          <mxGeometry width="50" height="50" relative="1" as="geometry">
            <mxPoint x="-4670.9" y="100" as="sourcePoint" />
            <mxPoint x="-4660.9" y="60" as="targetPoint" />
          </mxGeometry>
        </mxCell>
        <mxCell id="XI2xmRr-VkAx-h7ioAOE-461" value="" style="endArrow=none;html=1;rounded=0;exitX=1;exitY=0;exitDx=0;exitDy=0;entryX=0.36;entryY=1.001;entryDx=0;entryDy=0;entryPerimeter=0;" parent="1" source="XI2xmRr-VkAx-h7ioAOE-454" target="XI2xmRr-VkAx-h7ioAOE-452" edge="1">
          <mxGeometry width="50" height="50" relative="1" as="geometry">
            <mxPoint x="-4670.9" y="70.02000000000001" as="sourcePoint" />
            <mxPoint x="-4611.699999999999" y="129.98000000000005" as="targetPoint" />
          </mxGeometry>
        </mxCell>
        <mxCell id="XI2xmRr-VkAx-h7ioAOE-462" value="" style="endArrow=none;html=1;rounded=0;exitX=0.991;exitY=0.348;exitDx=0;exitDy=0;entryX=0.2;entryY=1;entryDx=0;entryDy=0;exitPerimeter=0;entryPerimeter=0;" parent="1" source="XI2xmRr-VkAx-h7ioAOE-455" target="XI2xmRr-VkAx-h7ioAOE-452" edge="1">
          <mxGeometry width="50" height="50" relative="1" as="geometry">
            <mxPoint x="-4670.9" y="146" as="sourcePoint" />
            <mxPoint x="-4610.9" y="110" as="targetPoint" />
          </mxGeometry>
        </mxCell>
        <mxCell id="XI2xmRr-VkAx-h7ioAOE-463" value="" style="endArrow=none;html=1;rounded=0;entryX=1;entryY=0.5;entryDx=0;entryDy=0;exitX=0;exitY=0.5;exitDx=0;exitDy=0;" parent="1" source="XI2xmRr-VkAx-h7ioAOE-452" target="XI2xmRr-VkAx-h7ioAOE-456" edge="1">
          <mxGeometry width="50" height="50" relative="1" as="geometry">
            <mxPoint x="-4700.9" y="90" as="sourcePoint" />
            <mxPoint x="-4770.9" y="90" as="targetPoint" />
          </mxGeometry>
        </mxCell>
        <mxCell id="XI2xmRr-VkAx-h7ioAOE-464" value="" style="endArrow=none;html=1;rounded=0;exitX=0;exitY=0.25;exitDx=0;exitDy=0;entryX=0.979;entryY=0.657;entryDx=0;entryDy=0;entryPerimeter=0;" parent="1" source="XI2xmRr-VkAx-h7ioAOE-452" target="XI2xmRr-VkAx-h7ioAOE-457" edge="1">
          <mxGeometry width="50" height="50" relative="1" as="geometry">
            <mxPoint x="-4580.9" y="130" as="sourcePoint" />
            <mxPoint x="-4770.9" y="49" as="targetPoint" />
          </mxGeometry>
        </mxCell>
        <mxCell id="XI2xmRr-VkAx-h7ioAOE-465" value="price" style="ellipse;whiteSpace=wrap;html=1;align=center;" parent="1" vertex="1">
          <mxGeometry x="-4890.9" y="80" width="100" height="40" as="geometry" />
        </mxCell>
        <mxCell id="XI2xmRr-VkAx-h7ioAOE-466" value="" style="endArrow=none;html=1;rounded=0;entryX=1;entryY=0.5;entryDx=0;entryDy=0;exitX=0;exitY=0.75;exitDx=0;exitDy=0;" parent="1" source="XI2xmRr-VkAx-h7ioAOE-452" target="XI2xmRr-VkAx-h7ioAOE-465" edge="1">
          <mxGeometry width="50" height="50" relative="1" as="geometry">
            <mxPoint x="-4650.9" y="110" as="sourcePoint" />
            <mxPoint x="-4750.9" y="70" as="targetPoint" />
          </mxGeometry>
        </mxCell>
        <mxCell id="XI2xmRr-VkAx-h7ioAOE-490" value="users" style="whiteSpace=wrap;html=1;align=center;" parent="1" vertex="1">
          <mxGeometry x="-4130" y="-180" width="100" height="40" as="geometry" />
        </mxCell>
        <mxCell id="XI2xmRr-VkAx-h7ioAOE-493" value="id" style="ellipse;whiteSpace=wrap;html=1;align=center;fontStyle=4;" parent="1" vertex="1">
          <mxGeometry x="-4130" y="-300" width="100" height="40" as="geometry" />
        </mxCell>
        <mxCell id="XI2xmRr-VkAx-h7ioAOE-494" value="" style="endArrow=none;html=1;rounded=0;entryX=0.5;entryY=1;entryDx=0;entryDy=0;exitX=0.5;exitY=0;exitDx=0;exitDy=0;" parent="1" source="XI2xmRr-VkAx-h7ioAOE-490" target="XI2xmRr-VkAx-h7ioAOE-493" edge="1">
          <mxGeometry width="50" height="50" relative="1" as="geometry">
            <mxPoint x="-3965" y="-220" as="sourcePoint" />
            <mxPoint x="-4000" y="-200" as="targetPoint" />
          </mxGeometry>
        </mxCell>
        <mxCell id="XI2xmRr-VkAx-h7ioAOE-495" value="name" style="ellipse;whiteSpace=wrap;html=1;align=center;" parent="1" vertex="1">
          <mxGeometry x="-4028" y="-300" width="100" height="40" as="geometry" />
        </mxCell>
        <mxCell id="XI2xmRr-VkAx-h7ioAOE-496" value="" style="endArrow=none;html=1;rounded=0;entryX=0.309;entryY=0.957;entryDx=0;entryDy=0;exitX=0.6;exitY=0;exitDx=0;exitDy=0;entryPerimeter=0;exitPerimeter=0;" parent="1" source="XI2xmRr-VkAx-h7ioAOE-490" target="XI2xmRr-VkAx-h7ioAOE-495" edge="1">
          <mxGeometry width="50" height="50" relative="1" as="geometry">
            <mxPoint x="-3971" y="-201" as="sourcePoint" />
            <mxPoint x="-3390" y="-40" as="targetPoint" />
          </mxGeometry>
        </mxCell>
        <mxCell id="XI2xmRr-VkAx-h7ioAOE-497" value="email" style="ellipse;whiteSpace=wrap;html=1;align=center;" parent="1" vertex="1">
          <mxGeometry x="-3925" y="-300" width="100" height="40" as="geometry" />
        </mxCell>
        <mxCell id="XI2xmRr-VkAx-h7ioAOE-498" value="" style="endArrow=none;html=1;rounded=0;entryX=0;entryY=1;entryDx=0;entryDy=0;exitX=0.649;exitY=0.003;exitDx=0;exitDy=0;exitPerimeter=0;" parent="1" source="XI2xmRr-VkAx-h7ioAOE-490" target="XI2xmRr-VkAx-h7ioAOE-497" edge="1">
          <mxGeometry width="50" height="50" relative="1" as="geometry">
            <mxPoint x="-4000" y="-220" as="sourcePoint" />
            <mxPoint x="-3905" y="-230" as="targetPoint" />
          </mxGeometry>
        </mxCell>
        <mxCell id="XI2xmRr-VkAx-h7ioAOE-499" value="email_verified" style="ellipse;whiteSpace=wrap;html=1;align=center;" parent="1" vertex="1">
          <mxGeometry x="-3823" y="-300" width="100" height="40" as="geometry" />
        </mxCell>
        <mxCell id="XI2xmRr-VkAx-h7ioAOE-500" value="" style="endArrow=none;html=1;rounded=0;entryX=0;entryY=1;entryDx=0;entryDy=0;exitX=0.75;exitY=0;exitDx=0;exitDy=0;" parent="1" source="XI2xmRr-VkAx-h7ioAOE-490" target="XI2xmRr-VkAx-h7ioAOE-499" edge="1">
          <mxGeometry width="50" height="50" relative="1" as="geometry">
            <mxPoint x="-3980" y="-180" as="sourcePoint" />
            <mxPoint x="-3805" y="-230" as="targetPoint" />
          </mxGeometry>
        </mxCell>
        <mxCell id="XI2xmRr-VkAx-h7ioAOE-501" value="password" style="ellipse;whiteSpace=wrap;html=1;align=center;" parent="1" vertex="1">
          <mxGeometry x="-3721.1" y="-300" width="100" height="40" as="geometry" />
        </mxCell>
        <mxCell id="XI2xmRr-VkAx-h7ioAOE-502" value="" style="endArrow=none;html=1;rounded=0;entryX=0;entryY=1;entryDx=0;entryDy=0;exitX=0.881;exitY=-0.004;exitDx=0;exitDy=0;exitPerimeter=0;" parent="1" source="XI2xmRr-VkAx-h7ioAOE-490" target="XI2xmRr-VkAx-h7ioAOE-501" edge="1">
          <mxGeometry width="50" height="50" relative="1" as="geometry">
            <mxPoint x="-4108" y="-229.87999999999965" as="sourcePoint" />
            <mxPoint x="-3705.1" y="-230" as="targetPoint" />
          </mxGeometry>
        </mxCell>
        <mxCell id="XI2xmRr-VkAx-h7ioAOE-503" value="two_factor_&lt;br&gt;secret" style="ellipse;whiteSpace=wrap;html=1;align=center;" parent="1" vertex="1">
          <mxGeometry x="-3619.1" y="-300" width="100" height="40" as="geometry" />
        </mxCell>
        <mxCell id="XI2xmRr-VkAx-h7ioAOE-504" value="" style="endArrow=none;html=1;rounded=0;entryX=0;entryY=1;entryDx=0;entryDy=0;exitX=1;exitY=0;exitDx=0;exitDy=0;" parent="1" source="XI2xmRr-VkAx-h7ioAOE-490" target="XI2xmRr-VkAx-h7ioAOE-503" edge="1">
          <mxGeometry width="50" height="50" relative="1" as="geometry">
            <mxPoint x="-3810" y="-154" as="sourcePoint" />
            <mxPoint x="-3474" y="-240" as="targetPoint" />
          </mxGeometry>
        </mxCell>
        <mxCell id="XI2xmRr-VkAx-h7ioAOE-505" value="updated_at" style="ellipse;whiteSpace=wrap;html=1;align=center;" parent="1" vertex="1">
          <mxGeometry x="-4640.9" y="-300" width="100" height="40" as="geometry" />
        </mxCell>
        <mxCell id="XI2xmRr-VkAx-h7ioAOE-506" value="" style="endArrow=none;html=1;rounded=0;entryX=0.813;entryY=0.925;entryDx=0;entryDy=0;exitX=0;exitY=0;exitDx=0;exitDy=0;entryPerimeter=0;" parent="1" source="XI2xmRr-VkAx-h7ioAOE-490" target="XI2xmRr-VkAx-h7ioAOE-505" edge="1">
          <mxGeometry width="50" height="50" relative="1" as="geometry">
            <mxPoint x="-4682.9" y="-180" as="sourcePoint" />
            <mxPoint x="-4002.9" y="-40" as="targetPoint" />
          </mxGeometry>
        </mxCell>
        <mxCell id="XI2xmRr-VkAx-h7ioAOE-507" value="created_at" style="ellipse;whiteSpace=wrap;html=1;align=center;" parent="1" vertex="1">
          <mxGeometry x="-4537.9" y="-300" width="100" height="40" as="geometry" />
        </mxCell>
        <mxCell id="XI2xmRr-VkAx-h7ioAOE-508" value="" style="endArrow=none;html=1;rounded=0;entryX=0.818;entryY=0.882;entryDx=0;entryDy=0;exitX=0.079;exitY=0;exitDx=0;exitDy=0;exitPerimeter=0;entryPerimeter=0;" parent="1" source="XI2xmRr-VkAx-h7ioAOE-490" target="XI2xmRr-VkAx-h7ioAOE-507" edge="1">
          <mxGeometry width="50" height="50" relative="1" as="geometry">
            <mxPoint x="-4677.9" y="-180" as="sourcePoint" />
            <mxPoint x="-4517.9" y="-230" as="targetPoint" />
          </mxGeometry>
        </mxCell>
        <mxCell id="XI2xmRr-VkAx-h7ioAOE-509" value="remember_token" style="ellipse;whiteSpace=wrap;html=1;align=center;" parent="1" vertex="1">
          <mxGeometry x="-4435.9" y="-300" width="100" height="40" as="geometry" />
        </mxCell>
        <mxCell id="XI2xmRr-VkAx-h7ioAOE-510" value="" style="endArrow=none;html=1;rounded=0;entryX=1;entryY=1;entryDx=0;entryDy=0;exitX=0.201;exitY=0;exitDx=0;exitDy=0;exitPerimeter=0;" parent="1" source="XI2xmRr-VkAx-h7ioAOE-490" target="XI2xmRr-VkAx-h7ioAOE-509" edge="1">
          <mxGeometry width="50" height="50" relative="1" as="geometry">
            <mxPoint x="-4667.9" y="-180" as="sourcePoint" />
            <mxPoint x="-4417.9" y="-230" as="targetPoint" />
          </mxGeometry>
        </mxCell>
        <mxCell id="XI2xmRr-VkAx-h7ioAOE-511" value="two_factor_&lt;br&gt;confirmed_at" style="ellipse;whiteSpace=wrap;html=1;align=center;" parent="1" vertex="1">
          <mxGeometry x="-4334" y="-300" width="100" height="40" as="geometry" />
        </mxCell>
        <mxCell id="XI2xmRr-VkAx-h7ioAOE-512" value="" style="endArrow=none;html=1;rounded=0;entryX=1;entryY=1;entryDx=0;entryDy=0;exitX=0.31;exitY=-0.007;exitDx=0;exitDy=0;exitPerimeter=0;" parent="1" source="XI2xmRr-VkAx-h7ioAOE-490" target="XI2xmRr-VkAx-h7ioAOE-511" edge="1">
          <mxGeometry width="50" height="50" relative="1" as="geometry">
            <mxPoint x="-4100" y="-182" as="sourcePoint" />
            <mxPoint x="-4252.1" y="-267.27999999999975" as="targetPoint" />
          </mxGeometry>
        </mxCell>
        <mxCell id="XI2xmRr-VkAx-h7ioAOE-513" value="two_factor_&lt;br&gt;recovery_codes" style="ellipse;whiteSpace=wrap;html=1;align=center;" parent="1" vertex="1">
          <mxGeometry x="-4232" y="-300" width="100" height="40" as="geometry" />
        </mxCell>
        <mxCell id="XI2xmRr-VkAx-h7ioAOE-514" value="" style="endArrow=none;html=1;rounded=0;entryX=0.799;entryY=0.895;entryDx=0;entryDy=0;entryPerimeter=0;" parent="1" target="XI2xmRr-VkAx-h7ioAOE-513" edge="1">
          <mxGeometry width="50" height="50" relative="1" as="geometry">
            <mxPoint x="-4090" y="-180" as="sourcePoint" />
            <mxPoint x="-4086.9" y="-240" as="targetPoint" />
          </mxGeometry>
        </mxCell>
        <mxCell id="XI2xmRr-VkAx-h7ioAOE-536" value="transactions" style="whiteSpace=wrap;html=1;align=center;" parent="1" vertex="1">
          <mxGeometry x="-3080.0000000000005" y="-180" width="100" height="40" as="geometry" />
        </mxCell>
        <mxCell id="XI2xmRr-VkAx-h7ioAOE-537" value="id" style="ellipse;whiteSpace=wrap;html=1;align=center;fontStyle=4;" parent="1" vertex="1">
          <mxGeometry x="-3080.0000000000005" y="-300" width="100" height="40" as="geometry" />
        </mxCell>
        <mxCell id="XI2xmRr-VkAx-h7ioAOE-538" value="" style="endArrow=none;html=1;rounded=0;entryX=0.5;entryY=1;entryDx=0;entryDy=0;exitX=0.5;exitY=0;exitDx=0;exitDy=0;" parent="1" source="XI2xmRr-VkAx-h7ioAOE-536" target="XI2xmRr-VkAx-h7ioAOE-537" edge="1">
          <mxGeometry width="50" height="50" relative="1" as="geometry">
            <mxPoint x="-2915.0000000000005" y="-220" as="sourcePoint" />
            <mxPoint x="-2950.0000000000005" y="-200" as="targetPoint" />
          </mxGeometry>
        </mxCell>
        <mxCell id="XI2xmRr-VkAx-h7ioAOE-539" value="cashier_id" style="ellipse;whiteSpace=wrap;html=1;align=center;" parent="1" vertex="1">
          <mxGeometry x="-2978.0000000000005" y="-300" width="100" height="40" as="geometry" />
        </mxCell>
        <mxCell id="XI2xmRr-VkAx-h7ioAOE-540" value="" style="endArrow=none;html=1;rounded=0;entryX=0.309;entryY=0.957;entryDx=0;entryDy=0;exitX=0.6;exitY=0;exitDx=0;exitDy=0;entryPerimeter=0;exitPerimeter=0;" parent="1" source="XI2xmRr-VkAx-h7ioAOE-536" target="XI2xmRr-VkAx-h7ioAOE-539" edge="1">
          <mxGeometry width="50" height="50" relative="1" as="geometry">
            <mxPoint x="-2921.0000000000005" y="-201" as="sourcePoint" />
            <mxPoint x="-2340.0000000000005" y="-40" as="targetPoint" />
          </mxGeometry>
        </mxCell>
        <mxCell id="XI2xmRr-VkAx-h7ioAOE-541" value="customer_id" style="ellipse;whiteSpace=wrap;html=1;align=center;" parent="1" vertex="1">
          <mxGeometry x="-2875.0000000000005" y="-300" width="100" height="40" as="geometry" />
        </mxCell>
        <mxCell id="XI2xmRr-VkAx-h7ioAOE-542" value="" style="endArrow=none;html=1;rounded=0;entryX=0;entryY=1;entryDx=0;entryDy=0;exitX=0.649;exitY=0.003;exitDx=0;exitDy=0;exitPerimeter=0;" parent="1" source="XI2xmRr-VkAx-h7ioAOE-536" target="XI2xmRr-VkAx-h7ioAOE-541" edge="1">
          <mxGeometry width="50" height="50" relative="1" as="geometry">
            <mxPoint x="-2950.0000000000005" y="-220" as="sourcePoint" />
            <mxPoint x="-2855.0000000000005" y="-230" as="targetPoint" />
          </mxGeometry>
        </mxCell>
        <mxCell id="XI2xmRr-VkAx-h7ioAOE-543" value="invoice" style="ellipse;whiteSpace=wrap;html=1;align=center;" parent="1" vertex="1">
          <mxGeometry x="-2773.0000000000005" y="-300" width="100" height="40" as="geometry" />
        </mxCell>
        <mxCell id="XI2xmRr-VkAx-h7ioAOE-544" value="" style="endArrow=none;html=1;rounded=0;entryX=0;entryY=1;entryDx=0;entryDy=0;exitX=0.75;exitY=0;exitDx=0;exitDy=0;" parent="1" source="XI2xmRr-VkAx-h7ioAOE-536" target="XI2xmRr-VkAx-h7ioAOE-543" edge="1">
          <mxGeometry width="50" height="50" relative="1" as="geometry">
            <mxPoint x="-2930.0000000000005" y="-180" as="sourcePoint" />
            <mxPoint x="-2755.0000000000005" y="-230" as="targetPoint" />
          </mxGeometry>
        </mxCell>
        <mxCell id="XI2xmRr-VkAx-h7ioAOE-545" value="cash" style="ellipse;whiteSpace=wrap;html=1;align=center;" parent="1" vertex="1">
          <mxGeometry x="-2671.1000000000004" y="-300" width="100" height="40" as="geometry" />
        </mxCell>
        <mxCell id="XI2xmRr-VkAx-h7ioAOE-546" value="" style="endArrow=none;html=1;rounded=0;entryX=0;entryY=1;entryDx=0;entryDy=0;exitX=0.881;exitY=-0.004;exitDx=0;exitDy=0;exitPerimeter=0;" parent="1" source="XI2xmRr-VkAx-h7ioAOE-536" target="XI2xmRr-VkAx-h7ioAOE-545" edge="1">
          <mxGeometry width="50" height="50" relative="1" as="geometry">
            <mxPoint x="-3058.0000000000005" y="-229.87999999999965" as="sourcePoint" />
            <mxPoint x="-2655.1000000000004" y="-230" as="targetPoint" />
          </mxGeometry>
        </mxCell>
        <mxCell id="XI2xmRr-VkAx-h7ioAOE-547" value="change" style="ellipse;whiteSpace=wrap;html=1;align=center;" parent="1" vertex="1">
          <mxGeometry x="-2569.1000000000004" y="-300" width="100" height="40" as="geometry" />
        </mxCell>
        <mxCell id="XI2xmRr-VkAx-h7ioAOE-548" value="" style="endArrow=none;html=1;rounded=0;entryX=0;entryY=1;entryDx=0;entryDy=0;exitX=1;exitY=0;exitDx=0;exitDy=0;" parent="1" source="XI2xmRr-VkAx-h7ioAOE-536" target="XI2xmRr-VkAx-h7ioAOE-547" edge="1">
          <mxGeometry width="50" height="50" relative="1" as="geometry">
            <mxPoint x="-2760.0000000000005" y="-154" as="sourcePoint" />
            <mxPoint x="-2424.0000000000005" y="-240" as="targetPoint" />
          </mxGeometry>
        </mxCell>
        <mxCell id="XI2xmRr-VkAx-h7ioAOE-551" value="updated_at" style="ellipse;whiteSpace=wrap;html=1;align=center;" parent="1" vertex="1">
          <mxGeometry x="-3487.9" y="-300" width="100" height="40" as="geometry" />
        </mxCell>
        <mxCell id="XI2xmRr-VkAx-h7ioAOE-552" value="" style="endArrow=none;html=1;rounded=0;entryX=0.818;entryY=0.882;entryDx=0;entryDy=0;exitX=0.079;exitY=0;exitDx=0;exitDy=0;exitPerimeter=0;entryPerimeter=0;" parent="1" source="XI2xmRr-VkAx-h7ioAOE-536" target="XI2xmRr-VkAx-h7ioAOE-551" edge="1">
          <mxGeometry width="50" height="50" relative="1" as="geometry">
            <mxPoint x="-3627.9" y="-180" as="sourcePoint" />
            <mxPoint x="-3467.9" y="-230" as="targetPoint" />
          </mxGeometry>
        </mxCell>
        <mxCell id="XI2xmRr-VkAx-h7ioAOE-553" value="created_at" style="ellipse;whiteSpace=wrap;html=1;align=center;" parent="1" vertex="1">
          <mxGeometry x="-3385.9" y="-300" width="100" height="40" as="geometry" />
        </mxCell>
        <mxCell id="XI2xmRr-VkAx-h7ioAOE-554" value="" style="endArrow=none;html=1;rounded=0;entryX=1;entryY=1;entryDx=0;entryDy=0;exitX=0.201;exitY=0;exitDx=0;exitDy=0;exitPerimeter=0;" parent="1" source="XI2xmRr-VkAx-h7ioAOE-536" target="XI2xmRr-VkAx-h7ioAOE-553" edge="1">
          <mxGeometry width="50" height="50" relative="1" as="geometry">
            <mxPoint x="-3617.9" y="-180" as="sourcePoint" />
            <mxPoint x="-3367.9" y="-230" as="targetPoint" />
          </mxGeometry>
        </mxCell>
        <mxCell id="XI2xmRr-VkAx-h7ioAOE-555" value="grand_total" style="ellipse;whiteSpace=wrap;html=1;align=center;" parent="1" vertex="1">
          <mxGeometry x="-3284.0000000000005" y="-300" width="100" height="40" as="geometry" />
        </mxCell>
        <mxCell id="XI2xmRr-VkAx-h7ioAOE-556" value="" style="endArrow=none;html=1;rounded=0;entryX=1;entryY=1;entryDx=0;entryDy=0;exitX=0.31;exitY=-0.007;exitDx=0;exitDy=0;exitPerimeter=0;" parent="1" source="XI2xmRr-VkAx-h7ioAOE-536" target="XI2xmRr-VkAx-h7ioAOE-555" edge="1">
          <mxGeometry width="50" height="50" relative="1" as="geometry">
            <mxPoint x="-3050.0000000000005" y="-182" as="sourcePoint" />
            <mxPoint x="-3202.100000000001" y="-267.27999999999975" as="targetPoint" />
          </mxGeometry>
        </mxCell>
        <mxCell id="XI2xmRr-VkAx-h7ioAOE-557" value="discount" style="ellipse;whiteSpace=wrap;html=1;align=center;" parent="1" vertex="1">
          <mxGeometry x="-3182.0000000000005" y="-300" width="100" height="40" as="geometry" />
        </mxCell>
        <mxCell id="XI2xmRr-VkAx-h7ioAOE-558" value="" style="endArrow=none;html=1;rounded=0;entryX=0.799;entryY=0.895;entryDx=0;entryDy=0;entryPerimeter=0;" parent="1" target="XI2xmRr-VkAx-h7ioAOE-557" edge="1">
          <mxGeometry width="50" height="50" relative="1" as="geometry">
            <mxPoint x="-3040.0000000000005" y="-180" as="sourcePoint" />
            <mxPoint x="-3036.9000000000005" y="-240" as="targetPoint" />
          </mxGeometry>
        </mxCell>
        <mxCell id="XI2xmRr-VkAx-h7ioAOE-559" value="customers" style="whiteSpace=wrap;html=1;align=center;" parent="1" vertex="1">
          <mxGeometry x="-2479.1" y="-100" width="100" height="40" as="geometry" />
        </mxCell>
        <mxCell id="XI2xmRr-VkAx-h7ioAOE-560" value="id" style="ellipse;whiteSpace=wrap;html=1;align=center;fontStyle=4;" parent="1" vertex="1">
          <mxGeometry x="-2310" y="-190" width="100" height="40" as="geometry" />
        </mxCell>
        <mxCell id="XI2xmRr-VkAx-h7ioAOE-561" value="address" style="ellipse;whiteSpace=wrap;html=1;align=center;" parent="1" vertex="1">
          <mxGeometry x="-2310" y="-40" width="100" height="40" as="geometry" />
        </mxCell>
        <mxCell id="XI2xmRr-VkAx-h7ioAOE-562" value="no_telp" style="ellipse;whiteSpace=wrap;html=1;align=center;" parent="1" vertex="1">
          <mxGeometry x="-2310" y="-90" width="100" height="40" as="geometry" />
        </mxCell>
        <mxCell id="XI2xmRr-VkAx-h7ioAOE-563" value="name" style="ellipse;whiteSpace=wrap;html=1;align=center;" parent="1" vertex="1">
          <mxGeometry x="-2310" y="-140" width="100" height="40" as="geometry" />
        </mxCell>
        <mxCell id="XI2xmRr-VkAx-h7ioAOE-564" value="" style="endArrow=none;html=1;rounded=0;exitX=0.851;exitY=-0.007;exitDx=0;exitDy=0;entryX=0;entryY=0.5;entryDx=0;entryDy=0;exitPerimeter=0;" parent="1" source="XI2xmRr-VkAx-h7ioAOE-559" target="XI2xmRr-VkAx-h7ioAOE-563" edge="1">
          <mxGeometry width="50" height="50" relative="1" as="geometry">
            <mxPoint x="-2425" y="80" as="sourcePoint" />
            <mxPoint x="-2310" y="110" as="targetPoint" />
          </mxGeometry>
        </mxCell>
        <mxCell id="XI2xmRr-VkAx-h7ioAOE-565" value="" style="endArrow=none;html=1;rounded=0;entryX=0.006;entryY=0.394;entryDx=0;entryDy=0;exitX=1;exitY=0.25;exitDx=0;exitDy=0;entryPerimeter=0;" parent="1" source="XI2xmRr-VkAx-h7ioAOE-559" target="XI2xmRr-VkAx-h7ioAOE-562" edge="1">
          <mxGeometry width="50" height="50" relative="1" as="geometry">
            <mxPoint x="-2345" y="110" as="sourcePoint" />
            <mxPoint x="-2295" y="80" as="targetPoint" />
          </mxGeometry>
        </mxCell>
        <mxCell id="XI2xmRr-VkAx-h7ioAOE-566" value="" style="endArrow=none;html=1;rounded=0;exitX=1;exitY=0.75;exitDx=0;exitDy=0;entryX=0.1;entryY=0.198;entryDx=0;entryDy=0;entryPerimeter=0;" parent="1" source="XI2xmRr-VkAx-h7ioAOE-559" target="XI2xmRr-VkAx-h7ioAOE-561" edge="1">
          <mxGeometry width="50" height="50" relative="1" as="geometry">
            <mxPoint x="-2335" y="140" as="sourcePoint" />
            <mxPoint x="-2285" y="120" as="targetPoint" />
          </mxGeometry>
        </mxCell>
        <mxCell id="XI2xmRr-VkAx-h7ioAOE-567" value="" style="endArrow=none;html=1;rounded=0;exitX=0.5;exitY=0;exitDx=0;exitDy=0;" parent="1" source="XI2xmRr-VkAx-h7ioAOE-559" target="XI2xmRr-VkAx-h7ioAOE-560" edge="1">
          <mxGeometry width="50" height="50" relative="1" as="geometry">
            <mxPoint x="-2405" y="110" as="sourcePoint" />
            <mxPoint x="-2475" y="110" as="targetPoint" />
          </mxGeometry>
        </mxCell>
        <mxCell id="XI2xmRr-VkAx-h7ioAOE-568" value="created_at" style="ellipse;whiteSpace=wrap;html=1;align=center;" parent="1" vertex="1">
          <mxGeometry x="-2310" y="10" width="100" height="40" as="geometry" />
        </mxCell>
        <mxCell id="XI2xmRr-VkAx-h7ioAOE-569" value="updated_at" style="ellipse;whiteSpace=wrap;html=1;align=center;" parent="1" vertex="1">
          <mxGeometry x="-2310" y="60" width="100" height="40" as="geometry" />
        </mxCell>
        <mxCell id="XI2xmRr-VkAx-h7ioAOE-570" value="" style="endArrow=none;html=1;rounded=0;exitX=0.909;exitY=1.029;exitDx=0;exitDy=0;exitPerimeter=0;entryX=0.097;entryY=0.201;entryDx=0;entryDy=0;entryPerimeter=0;" parent="1" source="XI2xmRr-VkAx-h7ioAOE-559" target="XI2xmRr-VkAx-h7ioAOE-568" edge="1">
          <mxGeometry width="50" height="50" relative="1" as="geometry">
            <mxPoint x="-2418" y="200" as="sourcePoint" />
            <mxPoint x="-2300" y="20" as="targetPoint" />
          </mxGeometry>
        </mxCell>
        <mxCell id="XI2xmRr-VkAx-h7ioAOE-571" value="" style="endArrow=none;html=1;rounded=0;entryX=0;entryY=0;entryDx=0;entryDy=0;exitX=0.591;exitY=1.011;exitDx=0;exitDy=0;exitPerimeter=0;" parent="1" source="XI2xmRr-VkAx-h7ioAOE-559" target="XI2xmRr-VkAx-h7ioAOE-569" edge="1">
          <mxGeometry width="50" height="50" relative="1" as="geometry">
            <mxPoint x="-2440" y="140" as="sourcePoint" />
            <mxPoint x="-2555" y="176" as="targetPoint" />
          </mxGeometry>
        </mxCell>
        <mxCell id="XI2xmRr-VkAx-h7ioAOE-585" value="profits" style="whiteSpace=wrap;html=1;align=center;" parent="1" vertex="1">
          <mxGeometry x="-2479.1" y="230" width="100" height="40" as="geometry" />
        </mxCell>
        <mxCell id="XI2xmRr-VkAx-h7ioAOE-586" value="id" style="ellipse;whiteSpace=wrap;html=1;align=center;fontStyle=4;" parent="1" vertex="1">
          <mxGeometry x="-2310" y="140" width="100" height="40" as="geometry" />
        </mxCell>
        <mxCell id="XI2xmRr-VkAx-h7ioAOE-588" value="total" style="ellipse;whiteSpace=wrap;html=1;align=center;" parent="1" vertex="1">
          <mxGeometry x="-2310" y="240" width="100" height="40" as="geometry" />
        </mxCell>
        <mxCell id="XI2xmRr-VkAx-h7ioAOE-589" value="transactions_id" style="ellipse;whiteSpace=wrap;html=1;align=center;" parent="1" vertex="1">
          <mxGeometry x="-2310" y="190" width="100" height="40" as="geometry" />
        </mxCell>
        <mxCell id="XI2xmRr-VkAx-h7ioAOE-590" value="" style="endArrow=none;html=1;rounded=0;exitX=0.851;exitY=-0.007;exitDx=0;exitDy=0;entryX=0;entryY=0.5;entryDx=0;entryDy=0;exitPerimeter=0;" parent="1" source="XI2xmRr-VkAx-h7ioAOE-585" target="XI2xmRr-VkAx-h7ioAOE-589" edge="1">
          <mxGeometry width="50" height="50" relative="1" as="geometry">
            <mxPoint x="-2425" y="410" as="sourcePoint" />
            <mxPoint x="-2310" y="440" as="targetPoint" />
          </mxGeometry>
        </mxCell>
        <mxCell id="XI2xmRr-VkAx-h7ioAOE-591" value="" style="endArrow=none;html=1;rounded=0;entryX=0.006;entryY=0.394;entryDx=0;entryDy=0;exitX=1;exitY=0.25;exitDx=0;exitDy=0;entryPerimeter=0;" parent="1" source="XI2xmRr-VkAx-h7ioAOE-585" target="XI2xmRr-VkAx-h7ioAOE-588" edge="1">
          <mxGeometry width="50" height="50" relative="1" as="geometry">
            <mxPoint x="-2345" y="440" as="sourcePoint" />
            <mxPoint x="-2295" y="410" as="targetPoint" />
          </mxGeometry>
        </mxCell>
        <mxCell id="XI2xmRr-VkAx-h7ioAOE-593" value="" style="endArrow=none;html=1;rounded=0;exitX=0.5;exitY=0;exitDx=0;exitDy=0;" parent="1" source="XI2xmRr-VkAx-h7ioAOE-585" target="XI2xmRr-VkAx-h7ioAOE-586" edge="1">
          <mxGeometry width="50" height="50" relative="1" as="geometry">
            <mxPoint x="-2405" y="440" as="sourcePoint" />
            <mxPoint x="-2475" y="440" as="targetPoint" />
          </mxGeometry>
        </mxCell>
        <mxCell id="XI2xmRr-VkAx-h7ioAOE-594" value="created_at" style="ellipse;whiteSpace=wrap;html=1;align=center;" parent="1" vertex="1">
          <mxGeometry x="-2310" y="290" width="100" height="40" as="geometry" />
        </mxCell>
        <mxCell id="XI2xmRr-VkAx-h7ioAOE-595" value="updated_at" style="ellipse;whiteSpace=wrap;html=1;align=center;" parent="1" vertex="1">
          <mxGeometry x="-2310" y="340" width="100" height="40" as="geometry" />
        </mxCell>
        <mxCell id="XI2xmRr-VkAx-h7ioAOE-596" value="" style="endArrow=none;html=1;rounded=0;exitX=1;exitY=0.75;exitDx=0;exitDy=0;entryX=0.097;entryY=0.201;entryDx=0;entryDy=0;entryPerimeter=0;" parent="1" source="XI2xmRr-VkAx-h7ioAOE-585" target="XI2xmRr-VkAx-h7ioAOE-594" edge="1">
          <mxGeometry width="50" height="50" relative="1" as="geometry">
            <mxPoint x="-2418" y="530" as="sourcePoint" />
            <mxPoint x="-2300" y="350" as="targetPoint" />
          </mxGeometry>
        </mxCell>
        <mxCell id="XI2xmRr-VkAx-h7ioAOE-597" value="" style="endArrow=none;html=1;rounded=0;entryX=0;entryY=0;entryDx=0;entryDy=0;exitX=0.88;exitY=1.007;exitDx=0;exitDy=0;exitPerimeter=0;" parent="1" source="XI2xmRr-VkAx-h7ioAOE-585" target="XI2xmRr-VkAx-h7ioAOE-595" edge="1">
          <mxGeometry width="50" height="50" relative="1" as="geometry">
            <mxPoint x="-2440" y="470" as="sourcePoint" />
            <mxPoint x="-2555" y="506" as="targetPoint" />
          </mxGeometry>
        </mxCell>
        <mxCell id="XI2xmRr-VkAx-h7ioAOE-598" value="permissions" style="whiteSpace=wrap;html=1;align=center;" parent="1" vertex="1">
          <mxGeometry x="-2479.1" y="460" width="100" height="40" as="geometry" />
        </mxCell>
        <mxCell id="XI2xmRr-VkAx-h7ioAOE-599" value="id" style="ellipse;whiteSpace=wrap;html=1;align=center;fontStyle=4;" parent="1" vertex="1">
          <mxGeometry x="-2479.1" y="570" width="100" height="40" as="geometry" />
        </mxCell>
        <mxCell id="XI2xmRr-VkAx-h7ioAOE-600" value="guard_name" style="ellipse;whiteSpace=wrap;html=1;align=center;" parent="1" vertex="1">
          <mxGeometry x="-2310" y="460" width="100" height="40" as="geometry" />
        </mxCell>
        <mxCell id="XI2xmRr-VkAx-h7ioAOE-601" value="name" style="ellipse;whiteSpace=wrap;html=1;align=center;" parent="1" vertex="1">
          <mxGeometry x="-2350" y="560" width="100" height="40" as="geometry" />
        </mxCell>
        <mxCell id="XI2xmRr-VkAx-h7ioAOE-602" value="" style="endArrow=none;html=1;rounded=0;exitX=0.75;exitY=1;exitDx=0;exitDy=0;" parent="1" source="XI2xmRr-VkAx-h7ioAOE-598" target="XI2xmRr-VkAx-h7ioAOE-601" edge="1">
          <mxGeometry width="50" height="50" relative="1" as="geometry">
            <mxPoint x="-2810" y="470" as="sourcePoint" />
            <mxPoint x="-2760" y="440" as="targetPoint" />
          </mxGeometry>
        </mxCell>
        <mxCell id="XI2xmRr-VkAx-h7ioAOE-603" value="" style="endArrow=none;html=1;rounded=0;exitX=1;exitY=0.5;exitDx=0;exitDy=0;entryX=0;entryY=0.5;entryDx=0;entryDy=0;" parent="1" source="XI2xmRr-VkAx-h7ioAOE-598" target="XI2xmRr-VkAx-h7ioAOE-600" edge="1">
          <mxGeometry width="50" height="50" relative="1" as="geometry">
            <mxPoint x="-2800" y="500" as="sourcePoint" />
            <mxPoint x="-2750" y="480" as="targetPoint" />
          </mxGeometry>
        </mxCell>
        <mxCell id="XI2xmRr-VkAx-h7ioAOE-604" value="" style="endArrow=none;html=1;rounded=0;entryX=0.5;entryY=0;entryDx=0;entryDy=0;exitX=0.5;exitY=1;exitDx=0;exitDy=0;" parent="1" source="XI2xmRr-VkAx-h7ioAOE-598" target="XI2xmRr-VkAx-h7ioAOE-599" edge="1">
          <mxGeometry width="50" height="50" relative="1" as="geometry">
            <mxPoint x="-2870" y="470" as="sourcePoint" />
            <mxPoint x="-2940" y="470" as="targetPoint" />
          </mxGeometry>
        </mxCell>
        <mxCell id="XI2xmRr-VkAx-h7ioAOE-605" value="created_at" style="ellipse;whiteSpace=wrap;html=1;align=center;" parent="1" vertex="1">
          <mxGeometry x="-2610" y="580" width="100" height="40" as="geometry" />
        </mxCell>
        <mxCell id="XI2xmRr-VkAx-h7ioAOE-606" value="updated_at" style="ellipse;whiteSpace=wrap;html=1;align=center;" parent="1" vertex="1">
          <mxGeometry x="-2660" y="530" width="100" height="40" as="geometry" />
        </mxCell>
        <mxCell id="XI2xmRr-VkAx-h7ioAOE-607" value="" style="endArrow=none;html=1;rounded=0;entryX=1;entryY=0;entryDx=0;entryDy=0;exitX=0.128;exitY=1;exitDx=0;exitDy=0;exitPerimeter=0;" parent="1" source="XI2xmRr-VkAx-h7ioAOE-598" target="XI2xmRr-VkAx-h7ioAOE-605" edge="1">
          <mxGeometry width="50" height="50" relative="1" as="geometry">
            <mxPoint x="-2883" y="560" as="sourcePoint" />
            <mxPoint x="-2980" y="664" as="targetPoint" />
          </mxGeometry>
        </mxCell>
        <mxCell id="XI2xmRr-VkAx-h7ioAOE-608" value="" style="endArrow=none;html=1;rounded=0;entryX=1;entryY=0.5;entryDx=0;entryDy=0;exitX=0;exitY=1;exitDx=0;exitDy=0;" parent="1" source="XI2xmRr-VkAx-h7ioAOE-598" target="XI2xmRr-VkAx-h7ioAOE-606" edge="1">
          <mxGeometry width="50" height="50" relative="1" as="geometry">
            <mxPoint x="-2905" y="500" as="sourcePoint" />
            <mxPoint x="-3020" y="536" as="targetPoint" />
          </mxGeometry>
        </mxCell>
        <mxCell id="XI2xmRr-VkAx-h7ioAOE-620" value="failed_jobs" style="whiteSpace=wrap;html=1;align=center;" parent="1" vertex="1">
          <mxGeometry x="-4340" y="410" width="100" height="40" as="geometry" />
        </mxCell>
        <mxCell id="XI2xmRr-VkAx-h7ioAOE-621" value="id" style="ellipse;whiteSpace=wrap;html=1;align=center;fontStyle=4;" parent="1" vertex="1">
          <mxGeometry x="-4340" y="530" width="100" height="40" as="geometry" />
        </mxCell>
        <mxCell id="XI2xmRr-VkAx-h7ioAOE-622" value="payload" style="ellipse;whiteSpace=wrap;html=1;align=center;" parent="1" vertex="1">
          <mxGeometry x="-4230" y="520" width="100" height="40" as="geometry" />
        </mxCell>
        <mxCell id="XI2xmRr-VkAx-h7ioAOE-623" value="queue" style="ellipse;whiteSpace=wrap;html=1;align=center;" parent="1" vertex="1">
          <mxGeometry x="-4140" y="480" width="100" height="40" as="geometry" />
        </mxCell>
        <mxCell id="XI2xmRr-VkAx-h7ioAOE-624" value="connection" style="ellipse;whiteSpace=wrap;html=1;align=center;" parent="1" vertex="1">
          <mxGeometry x="-4140" y="430" width="100" height="40" as="geometry" />
        </mxCell>
        <mxCell id="XI2xmRr-VkAx-h7ioAOE-625" value="uuid" style="ellipse;whiteSpace=wrap;html=1;align=center;" parent="1" vertex="1">
          <mxGeometry x="-4520" y="430" width="100" height="40" as="geometry" />
        </mxCell>
        <mxCell id="XI2xmRr-VkAx-h7ioAOE-626" value="" style="endArrow=none;html=1;rounded=0;entryX=1;entryY=0.5;entryDx=0;entryDy=0;exitX=0;exitY=0.5;exitDx=0;exitDy=0;" parent="1" source="XI2xmRr-VkAx-h7ioAOE-620" target="XI2xmRr-VkAx-h7ioAOE-625" edge="1">
          <mxGeometry width="50" height="50" relative="1" as="geometry">
            <mxPoint x="-4250" y="410" as="sourcePoint" />
            <mxPoint x="-3670" y="580" as="targetPoint" />
          </mxGeometry>
        </mxCell>
        <mxCell id="XI2xmRr-VkAx-h7ioAOE-627" value="" style="endArrow=none;html=1;rounded=0;entryX=0;entryY=0.5;entryDx=0;entryDy=0;exitX=1.013;exitY=0.582;exitDx=0;exitDy=0;exitPerimeter=0;" parent="1" source="XI2xmRr-VkAx-h7ioAOE-620" target="XI2xmRr-VkAx-h7ioAOE-624" edge="1">
          <mxGeometry width="50" height="50" relative="1" as="geometry">
            <mxPoint x="-4170" y="440" as="sourcePoint" />
            <mxPoint x="-4120" y="410" as="targetPoint" />
          </mxGeometry>
        </mxCell>
        <mxCell id="XI2xmRr-VkAx-h7ioAOE-628" value="" style="endArrow=none;html=1;rounded=0;exitX=0.995;exitY=0.882;exitDx=0;exitDy=0;entryX=0;entryY=0.5;entryDx=0;entryDy=0;exitPerimeter=0;" parent="1" source="XI2xmRr-VkAx-h7ioAOE-620" target="XI2xmRr-VkAx-h7ioAOE-623" edge="1">
          <mxGeometry width="50" height="50" relative="1" as="geometry">
            <mxPoint x="-4160" y="470" as="sourcePoint" />
            <mxPoint x="-4110" y="450" as="targetPoint" />
          </mxGeometry>
        </mxCell>
        <mxCell id="XI2xmRr-VkAx-h7ioAOE-629" value="" style="endArrow=none;html=1;rounded=0;entryX=0;entryY=0;entryDx=0;entryDy=0;" parent="1" source="XI2xmRr-VkAx-h7ioAOE-620" target="XI2xmRr-VkAx-h7ioAOE-622" edge="1">
          <mxGeometry width="50" height="50" relative="1" as="geometry">
            <mxPoint x="-4200" y="500" as="sourcePoint" />
            <mxPoint x="-4125" y="575" as="targetPoint" />
          </mxGeometry>
        </mxCell>
        <mxCell id="XI2xmRr-VkAx-h7ioAOE-630" value="" style="endArrow=none;html=1;rounded=0;entryX=0.5;entryY=0;entryDx=0;entryDy=0;exitX=0.5;exitY=1;exitDx=0;exitDy=0;entryPerimeter=0;" parent="1" source="XI2xmRr-VkAx-h7ioAOE-620" target="XI2xmRr-VkAx-h7ioAOE-621" edge="1">
          <mxGeometry width="50" height="50" relative="1" as="geometry">
            <mxPoint x="-4230" y="440" as="sourcePoint" />
            <mxPoint x="-4300" y="440" as="targetPoint" />
          </mxGeometry>
        </mxCell>
        <mxCell id="XI2xmRr-VkAx-h7ioAOE-631" value="exeption" style="ellipse;whiteSpace=wrap;html=1;align=center;" parent="1" vertex="1">
          <mxGeometry x="-4450" y="520" width="100" height="40" as="geometry" />
        </mxCell>
        <mxCell id="XI2xmRr-VkAx-h7ioAOE-632" value="failed_at" style="ellipse;whiteSpace=wrap;html=1;align=center;" parent="1" vertex="1">
          <mxGeometry x="-4510" y="480" width="100" height="40" as="geometry" />
        </mxCell>
        <mxCell id="XI2xmRr-VkAx-h7ioAOE-633" value="" style="endArrow=none;html=1;rounded=0;entryX=1;entryY=0;entryDx=0;entryDy=0;exitX=0.25;exitY=1;exitDx=0;exitDy=0;" parent="1" source="XI2xmRr-VkAx-h7ioAOE-620" target="XI2xmRr-VkAx-h7ioAOE-631" edge="1">
          <mxGeometry width="50" height="50" relative="1" as="geometry">
            <mxPoint x="-4243" y="530" as="sourcePoint" />
            <mxPoint x="-4340" y="634" as="targetPoint" />
          </mxGeometry>
        </mxCell>
        <mxCell id="XI2xmRr-VkAx-h7ioAOE-634" value="" style="endArrow=none;html=1;rounded=0;entryX=1;entryY=0.5;entryDx=0;entryDy=0;exitX=0.001;exitY=0.868;exitDx=0;exitDy=0;exitPerimeter=0;" parent="1" source="XI2xmRr-VkAx-h7ioAOE-620" target="XI2xmRr-VkAx-h7ioAOE-632" edge="1">
          <mxGeometry width="50" height="50" relative="1" as="geometry">
            <mxPoint x="-4265" y="470" as="sourcePoint" />
            <mxPoint x="-4380" y="506" as="targetPoint" />
          </mxGeometry>
        </mxCell>
        <mxCell id="XI2xmRr-VkAx-h7ioAOE-635" value="personal_access_tokens" style="whiteSpace=wrap;html=1;align=center;" parent="1" vertex="1">
          <mxGeometry x="-4310" y="640" width="140" height="40" as="geometry" />
        </mxCell>
        <mxCell id="XI2xmRr-VkAx-h7ioAOE-636" value="id" style="ellipse;whiteSpace=wrap;html=1;align=center;fontStyle=4;" parent="1" vertex="1">
          <mxGeometry x="-4290" y="780" width="100" height="40" as="geometry" />
        </mxCell>
        <mxCell id="XI2xmRr-VkAx-h7ioAOE-637" value="abilities" style="ellipse;whiteSpace=wrap;html=1;align=center;" parent="1" vertex="1">
          <mxGeometry x="-4100" y="730" width="100" height="40" as="geometry" />
        </mxCell>
        <mxCell id="XI2xmRr-VkAx-h7ioAOE-638" value="token" style="ellipse;whiteSpace=wrap;html=1;align=center;" parent="1" vertex="1">
          <mxGeometry x="-4028" y="690" width="100" height="40" as="geometry" />
        </mxCell>
        <mxCell id="XI2xmRr-VkAx-h7ioAOE-639" value="name" style="ellipse;whiteSpace=wrap;html=1;align=center;" parent="1" vertex="1">
          <mxGeometry x="-4190" y="760" width="100" height="40" as="geometry" />
        </mxCell>
        <mxCell id="XI2xmRr-VkAx-h7ioAOE-640" value="tokenable_id" style="ellipse;whiteSpace=wrap;html=1;align=center;" parent="1" vertex="1">
          <mxGeometry x="-4035" y="640" width="100" height="40" as="geometry" />
        </mxCell>
        <mxCell id="XI2xmRr-VkAx-h7ioAOE-641" value="tokenable" style="ellipse;whiteSpace=wrap;html=1;align=center;" parent="1" vertex="1">
          <mxGeometry x="-4500" y="750" width="100" height="40" as="geometry" />
        </mxCell>
        <mxCell id="XI2xmRr-VkAx-h7ioAOE-642" value="" style="endArrow=none;html=1;rounded=0;entryX=1;entryY=0;entryDx=0;entryDy=0;exitX=0.124;exitY=0.997;exitDx=0;exitDy=0;exitPerimeter=0;" parent="1" source="XI2xmRr-VkAx-h7ioAOE-635" target="XI2xmRr-VkAx-h7ioAOE-641" edge="1">
          <mxGeometry width="50" height="50" relative="1" as="geometry">
            <mxPoint x="-4177.5" y="850" as="sourcePoint" />
            <mxPoint x="-3597.5" y="1020" as="targetPoint" />
          </mxGeometry>
        </mxCell>
        <mxCell id="XI2xmRr-VkAx-h7ioAOE-643" value="" style="endArrow=none;html=1;rounded=0;entryX=0;entryY=0.5;entryDx=0;entryDy=0;exitX=1;exitY=0.5;exitDx=0;exitDy=0;" parent="1" source="XI2xmRr-VkAx-h7ioAOE-635" target="XI2xmRr-VkAx-h7ioAOE-640" edge="1">
          <mxGeometry width="50" height="50" relative="1" as="geometry">
            <mxPoint x="-4097.5" y="880" as="sourcePoint" />
            <mxPoint x="-4047.5" y="850" as="targetPoint" />
          </mxGeometry>
        </mxCell>
        <mxCell id="XI2xmRr-VkAx-h7ioAOE-644" value="" style="endArrow=none;html=1;rounded=0;exitX=0.631;exitY=0.995;exitDx=0;exitDy=0;entryX=0;entryY=0;entryDx=0;entryDy=0;exitPerimeter=0;" parent="1" source="XI2xmRr-VkAx-h7ioAOE-635" target="XI2xmRr-VkAx-h7ioAOE-639" edge="1">
          <mxGeometry width="50" height="50" relative="1" as="geometry">
            <mxPoint x="-4087.5" y="910" as="sourcePoint" />
            <mxPoint x="-4037.5" y="890" as="targetPoint" />
          </mxGeometry>
        </mxCell>
        <mxCell id="XI2xmRr-VkAx-h7ioAOE-645" value="" style="endArrow=none;html=1;rounded=0;exitX=1;exitY=0.75;exitDx=0;exitDy=0;" parent="1" source="XI2xmRr-VkAx-h7ioAOE-635" edge="1">
          <mxGeometry width="50" height="50" relative="1" as="geometry">
            <mxPoint x="-4127.5" y="940" as="sourcePoint" />
            <mxPoint x="-4020" y="700" as="targetPoint" />
          </mxGeometry>
        </mxCell>
        <mxCell id="XI2xmRr-VkAx-h7ioAOE-646" value="" style="endArrow=none;html=1;rounded=0;entryX=0.327;entryY=0.035;entryDx=0;entryDy=0;exitX=0.894;exitY=0.995;exitDx=0;exitDy=0;entryPerimeter=0;exitPerimeter=0;" parent="1" source="XI2xmRr-VkAx-h7ioAOE-635" target="XI2xmRr-VkAx-h7ioAOE-637" edge="1">
          <mxGeometry width="50" height="50" relative="1" as="geometry">
            <mxPoint x="-4197.5" y="910" as="sourcePoint" />
            <mxPoint x="-4187.5" y="1010" as="targetPoint" />
          </mxGeometry>
        </mxCell>
        <mxCell id="XI2xmRr-VkAx-h7ioAOE-647" value="" style="endArrow=none;html=1;rounded=0;entryX=0.5;entryY=0;entryDx=0;entryDy=0;exitX=0.5;exitY=1;exitDx=0;exitDy=0;" parent="1" source="XI2xmRr-VkAx-h7ioAOE-635" target="XI2xmRr-VkAx-h7ioAOE-636" edge="1">
          <mxGeometry width="50" height="50" relative="1" as="geometry">
            <mxPoint x="-4157.5" y="880" as="sourcePoint" />
            <mxPoint x="-4227.5" y="880" as="targetPoint" />
          </mxGeometry>
        </mxCell>
        <mxCell id="XI2xmRr-VkAx-h7ioAOE-648" value="last_used_at" style="ellipse;whiteSpace=wrap;html=1;align=center;" parent="1" vertex="1">
          <mxGeometry x="-4390" y="750" width="100" height="40" as="geometry" />
        </mxCell>
        <mxCell id="XI2xmRr-VkAx-h7ioAOE-649" value="" style="endArrow=none;html=1;rounded=0;entryX=0.741;entryY=0.004;entryDx=0;entryDy=0;exitX=0.287;exitY=0.984;exitDx=0;exitDy=0;entryPerimeter=0;exitPerimeter=0;" parent="1" source="XI2xmRr-VkAx-h7ioAOE-635" target="XI2xmRr-VkAx-h7ioAOE-648" edge="1">
          <mxGeometry width="50" height="50" relative="1" as="geometry">
            <mxPoint x="-4097.5" y="1000" as="sourcePoint" />
            <mxPoint x="-4037.5" y="1117" as="targetPoint" />
          </mxGeometry>
        </mxCell>
        <mxCell id="XI2xmRr-VkAx-h7ioAOE-650" value="created_at" style="ellipse;whiteSpace=wrap;html=1;align=center;" parent="1" vertex="1">
          <mxGeometry x="-4520" y="700" width="100" height="40" as="geometry" />
        </mxCell>
        <mxCell id="XI2xmRr-VkAx-h7ioAOE-651" value="updated_at" style="ellipse;whiteSpace=wrap;html=1;align=center;" parent="1" vertex="1">
          <mxGeometry x="-4520" y="640" width="100" height="40" as="geometry" />
        </mxCell>
        <mxCell id="XI2xmRr-VkAx-h7ioAOE-652" value="" style="endArrow=none;html=1;rounded=0;entryX=1;entryY=0;entryDx=0;entryDy=0;exitX=0;exitY=1;exitDx=0;exitDy=0;" parent="1" source="XI2xmRr-VkAx-h7ioAOE-635" target="XI2xmRr-VkAx-h7ioAOE-650" edge="1">
          <mxGeometry width="50" height="50" relative="1" as="geometry">
            <mxPoint x="-4170.5" y="970" as="sourcePoint" />
            <mxPoint x="-4267.5" y="1074" as="targetPoint" />
          </mxGeometry>
        </mxCell>
        <mxCell id="XI2xmRr-VkAx-h7ioAOE-653" value="" style="endArrow=none;html=1;rounded=0;entryX=1;entryY=0.5;entryDx=0;entryDy=0;exitX=0;exitY=0.5;exitDx=0;exitDy=0;" parent="1" source="XI2xmRr-VkAx-h7ioAOE-635" target="XI2xmRr-VkAx-h7ioAOE-651" edge="1">
          <mxGeometry width="50" height="50" relative="1" as="geometry">
            <mxPoint x="-4192.5" y="910" as="sourcePoint" />
            <mxPoint x="-4307.5" y="946" as="targetPoint" />
          </mxGeometry>
        </mxCell>
        <mxCell id="XI2xmRr-VkAx-h7ioAOE-654" value="model_has_permissions" style="whiteSpace=wrap;html=1;align=center;" parent="1" vertex="1">
          <mxGeometry x="-2847.5" y="620" width="135" height="40" as="geometry" />
        </mxCell>
        <mxCell id="XI2xmRr-VkAx-h7ioAOE-655" value="permission_id" style="ellipse;whiteSpace=wrap;html=1;align=center;fontStyle=4;" parent="1" vertex="1">
          <mxGeometry x="-2940" y="730" width="100" height="40" as="geometry" />
        </mxCell>
        <mxCell id="XI2xmRr-VkAx-h7ioAOE-656" value="model_id" style="ellipse;whiteSpace=wrap;html=1;align=center;" parent="1" vertex="1">
          <mxGeometry x="-2830" y="730" width="100" height="40" as="geometry" />
        </mxCell>
        <mxCell id="XI2xmRr-VkAx-h7ioAOE-657" value="model_type" style="ellipse;whiteSpace=wrap;html=1;align=center;" parent="1" vertex="1">
          <mxGeometry x="-2720" y="730" width="100" height="40" as="geometry" />
        </mxCell>
        <mxCell id="XI2xmRr-VkAx-h7ioAOE-658" value="" style="endArrow=none;html=1;rounded=0;entryX=0.256;entryY=0.073;entryDx=0;entryDy=0;exitX=0.75;exitY=1;exitDx=0;exitDy=0;entryPerimeter=0;" parent="1" source="XI2xmRr-VkAx-h7ioAOE-654" target="XI2xmRr-VkAx-h7ioAOE-657" edge="1">
          <mxGeometry width="50" height="50" relative="1" as="geometry">
            <mxPoint x="-2600" y="710" as="sourcePoint" />
            <mxPoint x="-2020" y="880" as="targetPoint" />
          </mxGeometry>
        </mxCell>
        <mxCell id="XI2xmRr-VkAx-h7ioAOE-659" value="" style="endArrow=none;html=1;rounded=0;entryX=0.5;entryY=0;entryDx=0;entryDy=0;exitX=0.5;exitY=1;exitDx=0;exitDy=0;" parent="1" source="XI2xmRr-VkAx-h7ioAOE-654" target="XI2xmRr-VkAx-h7ioAOE-656" edge="1">
          <mxGeometry width="50" height="50" relative="1" as="geometry">
            <mxPoint x="-2520" y="740" as="sourcePoint" />
            <mxPoint x="-2470" y="710" as="targetPoint" />
          </mxGeometry>
        </mxCell>
        <mxCell id="XI2xmRr-VkAx-h7ioAOE-660" value="" style="endArrow=none;html=1;rounded=0;entryX=0.6;entryY=0;entryDx=0;entryDy=0;exitX=0.25;exitY=1;exitDx=0;exitDy=0;entryPerimeter=0;" parent="1" source="XI2xmRr-VkAx-h7ioAOE-654" target="XI2xmRr-VkAx-h7ioAOE-655" edge="1">
          <mxGeometry width="50" height="50" relative="1" as="geometry">
            <mxPoint x="-2580" y="740" as="sourcePoint" />
            <mxPoint x="-2650" y="740" as="targetPoint" />
          </mxGeometry>
        </mxCell>
        <mxCell id="XI2xmRr-VkAx-h7ioAOE-661" value="role_has_permissions" style="whiteSpace=wrap;html=1;align=center;" parent="1" vertex="1">
          <mxGeometry x="-2740" y="280" width="130" height="40" as="geometry" />
        </mxCell>
        <mxCell id="XI2xmRr-VkAx-h7ioAOE-662" value="permission_id" style="ellipse;whiteSpace=wrap;html=1;align=center;fontStyle=4;" parent="1" vertex="1">
          <mxGeometry x="-2830" y="190" width="100" height="40" as="geometry" />
        </mxCell>
        <mxCell id="XI2xmRr-VkAx-h7ioAOE-663" value="role_id" style="ellipse;whiteSpace=wrap;html=1;align=center;" parent="1" vertex="1">
          <mxGeometry x="-2700" y="190" width="100" height="40" as="geometry" />
        </mxCell>
        <mxCell id="XI2xmRr-VkAx-h7ioAOE-664" value="" style="endArrow=none;html=1;rounded=0;entryX=0.5;entryY=1;entryDx=0;entryDy=0;exitX=0.696;exitY=-0.004;exitDx=0;exitDy=0;exitPerimeter=0;" parent="1" source="XI2xmRr-VkAx-h7ioAOE-661" target="XI2xmRr-VkAx-h7ioAOE-663" edge="1">
          <mxGeometry width="50" height="50" relative="1" as="geometry">
            <mxPoint x="-2690" y="270" as="sourcePoint" />
            <mxPoint x="-2110" y="440" as="targetPoint" />
          </mxGeometry>
        </mxCell>
        <mxCell id="XI2xmRr-VkAx-h7ioAOE-665" value="" style="endArrow=none;html=1;rounded=0;entryX=1;entryY=1;entryDx=0;entryDy=0;exitX=0.364;exitY=-0.004;exitDx=0;exitDy=0;exitPerimeter=0;" parent="1" source="XI2xmRr-VkAx-h7ioAOE-661" target="XI2xmRr-VkAx-h7ioAOE-662" edge="1">
          <mxGeometry width="50" height="50" relative="1" as="geometry">
            <mxPoint x="-2670" y="300" as="sourcePoint" />
            <mxPoint x="-2740" y="300" as="targetPoint" />
          </mxGeometry>
        </mxCell>
        <mxCell id="XI2xmRr-VkAx-h7ioAOE-666" value="roles" style="whiteSpace=wrap;html=1;align=center;" parent="1" vertex="1">
          <mxGeometry x="-3045" y="460" width="100" height="40" as="geometry" />
        </mxCell>
        <mxCell id="XI2xmRr-VkAx-h7ioAOE-667" value="id" style="ellipse;whiteSpace=wrap;html=1;align=center;fontStyle=4;" parent="1" vertex="1">
          <mxGeometry x="-2990" y="590" width="100" height="40" as="geometry" />
        </mxCell>
        <mxCell id="XI2xmRr-VkAx-h7ioAOE-668" value="guard_name" style="ellipse;whiteSpace=wrap;html=1;align=center;" parent="1" vertex="1">
          <mxGeometry x="-3210" y="560" width="100" height="40" as="geometry" />
        </mxCell>
        <mxCell id="XI2xmRr-VkAx-h7ioAOE-669" value="name" style="ellipse;whiteSpace=wrap;html=1;align=center;" parent="1" vertex="1">
          <mxGeometry x="-2945" y="530" width="100" height="40" as="geometry" />
        </mxCell>
        <mxCell id="XI2xmRr-VkAx-h7ioAOE-670" value="" style="endArrow=none;html=1;rounded=0;exitX=0.633;exitY=0.995;exitDx=0;exitDy=0;exitPerimeter=0;" parent="1" source="XI2xmRr-VkAx-h7ioAOE-666" target="XI2xmRr-VkAx-h7ioAOE-669" edge="1">
          <mxGeometry width="50" height="50" relative="1" as="geometry">
            <mxPoint x="-2925" y="480" as="sourcePoint" />
            <mxPoint x="-2875" y="450" as="targetPoint" />
          </mxGeometry>
        </mxCell>
        <mxCell id="XI2xmRr-VkAx-h7ioAOE-671" value="" style="endArrow=none;html=1;rounded=0;exitX=0.25;exitY=1;exitDx=0;exitDy=0;entryX=0.76;entryY=0.074;entryDx=0;entryDy=0;entryPerimeter=0;" parent="1" source="XI2xmRr-VkAx-h7ioAOE-666" target="XI2xmRr-VkAx-h7ioAOE-668" edge="1">
          <mxGeometry width="50" height="50" relative="1" as="geometry">
            <mxPoint x="-2915" y="510" as="sourcePoint" />
            <mxPoint x="-3130" y="560" as="targetPoint" />
          </mxGeometry>
        </mxCell>
        <mxCell id="XI2xmRr-VkAx-h7ioAOE-672" value="" style="endArrow=none;html=1;rounded=0;exitX=0.5;exitY=1;exitDx=0;exitDy=0;entryX=0.5;entryY=0;entryDx=0;entryDy=0;" parent="1" source="XI2xmRr-VkAx-h7ioAOE-666" target="XI2xmRr-VkAx-h7ioAOE-667" edge="1">
          <mxGeometry width="50" height="50" relative="1" as="geometry">
            <mxPoint x="-2985" y="480" as="sourcePoint" />
            <mxPoint x="-2980" y="570" as="targetPoint" />
          </mxGeometry>
        </mxCell>
        <mxCell id="XI2xmRr-VkAx-h7ioAOE-673" value="created_at" style="ellipse;whiteSpace=wrap;html=1;align=center;" parent="1" vertex="1">
          <mxGeometry x="-3250" y="510" width="100" height="40" as="geometry" />
        </mxCell>
        <mxCell id="XI2xmRr-VkAx-h7ioAOE-674" value="updated_at" style="ellipse;whiteSpace=wrap;html=1;align=center;" parent="1" vertex="1">
          <mxGeometry x="-3250" y="430" width="100" height="40" as="geometry" />
        </mxCell>
        <mxCell id="XI2xmRr-VkAx-h7ioAOE-675" value="" style="endArrow=none;html=1;rounded=0;entryX=1;entryY=0;entryDx=0;entryDy=0;exitX=0;exitY=0.75;exitDx=0;exitDy=0;" parent="1" source="XI2xmRr-VkAx-h7ioAOE-666" target="XI2xmRr-VkAx-h7ioAOE-673" edge="1">
          <mxGeometry width="50" height="50" relative="1" as="geometry">
            <mxPoint x="-2998" y="570" as="sourcePoint" />
            <mxPoint x="-3095" y="674" as="targetPoint" />
          </mxGeometry>
        </mxCell>
        <mxCell id="XI2xmRr-VkAx-h7ioAOE-676" value="" style="endArrow=none;html=1;rounded=0;entryX=1;entryY=0.5;entryDx=0;entryDy=0;exitX=0;exitY=0.5;exitDx=0;exitDy=0;" parent="1" source="XI2xmRr-VkAx-h7ioAOE-666" target="XI2xmRr-VkAx-h7ioAOE-674" edge="1">
          <mxGeometry width="50" height="50" relative="1" as="geometry">
            <mxPoint x="-3020" y="510" as="sourcePoint" />
            <mxPoint x="-3135" y="546" as="targetPoint" />
          </mxGeometry>
        </mxCell>
        <mxCell id="XI2xmRr-VkAx-h7ioAOE-677" value="model_has_roles" style="whiteSpace=wrap;html=1;align=center;" parent="1" vertex="1">
          <mxGeometry x="-3195" y="286" width="100" height="40" as="geometry" />
        </mxCell>
        <mxCell id="XI2xmRr-VkAx-h7ioAOE-678" value="id" style="ellipse;whiteSpace=wrap;html=1;align=center;fontStyle=4;" parent="1" vertex="1">
          <mxGeometry x="-3335" y="206" width="100" height="40" as="geometry" />
        </mxCell>
        <mxCell id="XI2xmRr-VkAx-h7ioAOE-679" value="model_id" style="ellipse;whiteSpace=wrap;html=1;align=center;" parent="1" vertex="1">
          <mxGeometry x="-3045" y="206" width="100" height="40" as="geometry" />
        </mxCell>
        <mxCell id="XI2xmRr-VkAx-h7ioAOE-680" value="model_type" style="ellipse;whiteSpace=wrap;html=1;align=center;" parent="1" vertex="1">
          <mxGeometry x="-3205" y="186" width="100" height="40" as="geometry" />
        </mxCell>
        <mxCell id="XI2xmRr-VkAx-h7ioAOE-681" value="" style="endArrow=none;html=1;rounded=0;entryX=0.5;entryY=1;entryDx=0;entryDy=0;exitX=0.394;exitY=-0.015;exitDx=0;exitDy=0;exitPerimeter=0;" parent="1" source="XI2xmRr-VkAx-h7ioAOE-677" target="XI2xmRr-VkAx-h7ioAOE-680" edge="1">
          <mxGeometry width="50" height="50" relative="1" as="geometry">
            <mxPoint x="-3155" y="276" as="sourcePoint" />
            <mxPoint x="-2575" y="446" as="targetPoint" />
          </mxGeometry>
        </mxCell>
        <mxCell id="XI2xmRr-VkAx-h7ioAOE-682" value="" style="endArrow=none;html=1;rounded=0;entryX=0;entryY=0.5;entryDx=0;entryDy=0;exitX=0.75;exitY=0;exitDx=0;exitDy=0;" parent="1" source="XI2xmRr-VkAx-h7ioAOE-677" target="XI2xmRr-VkAx-h7ioAOE-679" edge="1">
          <mxGeometry width="50" height="50" relative="1" as="geometry">
            <mxPoint x="-3075" y="306" as="sourcePoint" />
            <mxPoint x="-3025" y="276" as="targetPoint" />
          </mxGeometry>
        </mxCell>
        <mxCell id="XI2xmRr-VkAx-h7ioAOE-683" value="" style="endArrow=none;html=1;rounded=0;entryX=1;entryY=1;entryDx=0;entryDy=0;exitX=0.25;exitY=0;exitDx=0;exitDy=0;" parent="1" source="XI2xmRr-VkAx-h7ioAOE-677" target="XI2xmRr-VkAx-h7ioAOE-678" edge="1">
          <mxGeometry width="50" height="50" relative="1" as="geometry">
            <mxPoint x="-3135" y="306" as="sourcePoint" />
            <mxPoint x="-3205" y="306" as="targetPoint" />
          </mxGeometry>
        </mxCell>
        <mxCell id="XI2xmRr-VkAx-h7ioAOE-684" value="transactiondetail" style="whiteSpace=wrap;html=1;align=center;" parent="1" vertex="1">
          <mxGeometry x="-3430" y="-23" width="100" height="40" as="geometry" />
        </mxCell>
        <mxCell id="XI2xmRr-VkAx-h7ioAOE-685" value="id" style="ellipse;whiteSpace=wrap;html=1;align=center;fontStyle=4;" parent="1" vertex="1">
          <mxGeometry x="-3487.9" y="67" width="100" height="40" as="geometry" />
        </mxCell>
        <mxCell id="XI2xmRr-VkAx-h7ioAOE-686" value="price" style="ellipse;whiteSpace=wrap;html=1;align=center;" parent="1" vertex="1">
          <mxGeometry x="-3270" y="87" width="100" height="40" as="geometry" />
        </mxCell>
        <mxCell id="XI2xmRr-VkAx-h7ioAOE-687" value="qty" style="ellipse;whiteSpace=wrap;html=1;align=center;" parent="1" vertex="1">
          <mxGeometry x="-3240" y="17" width="100" height="40" as="geometry" />
        </mxCell>
        <mxCell id="XI2xmRr-VkAx-h7ioAOE-688" value="product_id" style="ellipse;whiteSpace=wrap;html=1;align=center;" parent="1" vertex="1">
          <mxGeometry x="-3260" y="-33" width="100" height="40" as="geometry" />
        </mxCell>
        <mxCell id="XI2xmRr-VkAx-h7ioAOE-689" value="transactions_id" style="ellipse;whiteSpace=wrap;html=1;align=center;" parent="1" vertex="1">
          <mxGeometry x="-3380" y="87" width="100" height="40" as="geometry" />
        </mxCell>
        <mxCell id="XI2xmRr-VkAx-h7ioAOE-690" value="" style="endArrow=none;html=1;rounded=0;entryX=0.358;entryY=0.019;entryDx=0;entryDy=0;exitX=0.59;exitY=0.991;exitDx=0;exitDy=0;exitPerimeter=0;entryPerimeter=0;" parent="1" source="XI2xmRr-VkAx-h7ioAOE-684" target="XI2xmRr-VkAx-h7ioAOE-689" edge="1">
          <mxGeometry width="50" height="50" relative="1" as="geometry">
            <mxPoint x="-3390" y="-33" as="sourcePoint" />
            <mxPoint x="-2810" y="137" as="targetPoint" />
          </mxGeometry>
        </mxCell>
        <mxCell id="XI2xmRr-VkAx-h7ioAOE-691" value="" style="endArrow=none;html=1;rounded=0;entryX=0;entryY=0.5;entryDx=0;entryDy=0;exitX=1;exitY=0.5;exitDx=0;exitDy=0;" parent="1" source="XI2xmRr-VkAx-h7ioAOE-684" target="XI2xmRr-VkAx-h7ioAOE-688" edge="1">
          <mxGeometry width="50" height="50" relative="1" as="geometry">
            <mxPoint x="-3310" y="-3" as="sourcePoint" />
            <mxPoint x="-3260" y="-33" as="targetPoint" />
          </mxGeometry>
        </mxCell>
        <mxCell id="XI2xmRr-VkAx-h7ioAOE-692" value="" style="endArrow=none;html=1;rounded=0;exitX=1;exitY=0.75;exitDx=0;exitDy=0;entryX=0;entryY=0.5;entryDx=0;entryDy=0;" parent="1" source="XI2xmRr-VkAx-h7ioAOE-684" target="XI2xmRr-VkAx-h7ioAOE-687" edge="1">
          <mxGeometry width="50" height="50" relative="1" as="geometry">
            <mxPoint x="-3300" y="27" as="sourcePoint" />
            <mxPoint x="-3250" y="7" as="targetPoint" />
          </mxGeometry>
        </mxCell>
        <mxCell id="XI2xmRr-VkAx-h7ioAOE-693" value="" style="endArrow=none;html=1;rounded=0;entryX=0.5;entryY=0;entryDx=0;entryDy=0;exitX=1;exitY=1;exitDx=0;exitDy=0;" parent="1" source="XI2xmRr-VkAx-h7ioAOE-684" target="XI2xmRr-VkAx-h7ioAOE-686" edge="1">
          <mxGeometry width="50" height="50" relative="1" as="geometry">
            <mxPoint x="-3340" y="57" as="sourcePoint" />
            <mxPoint x="-3265" y="132" as="targetPoint" />
          </mxGeometry>
        </mxCell>
        <mxCell id="XI2xmRr-VkAx-h7ioAOE-694" value="" style="endArrow=none;html=1;rounded=0;entryX=0.675;entryY=0.027;entryDx=0;entryDy=0;entryPerimeter=0;" parent="1" target="XI2xmRr-VkAx-h7ioAOE-685" edge="1">
          <mxGeometry width="50" height="50" relative="1" as="geometry">
            <mxPoint x="-3405" y="17" as="sourcePoint" />
            <mxPoint x="-3420" y="67" as="targetPoint" />
          </mxGeometry>
        </mxCell>
        <mxCell id="XI2xmRr-VkAx-h7ioAOE-695" value="created_at" style="ellipse;whiteSpace=wrap;html=1;align=center;" parent="1" vertex="1">
          <mxGeometry x="-3600" y="67" width="100" height="40" as="geometry" />
        </mxCell>
        <mxCell id="XI2xmRr-VkAx-h7ioAOE-696" value="updated_at" style="ellipse;whiteSpace=wrap;html=1;align=center;" parent="1" vertex="1">
          <mxGeometry x="-3620" y="27" width="100" height="40" as="geometry" />
        </mxCell>
        <mxCell id="XI2xmRr-VkAx-h7ioAOE-697" value="" style="endArrow=none;html=1;rounded=0;entryX=1;entryY=0;entryDx=0;entryDy=0;exitX=0;exitY=1;exitDx=0;exitDy=0;" parent="1" source="XI2xmRr-VkAx-h7ioAOE-684" target="XI2xmRr-VkAx-h7ioAOE-695" edge="1">
          <mxGeometry width="50" height="50" relative="1" as="geometry">
            <mxPoint x="-3383" y="87" as="sourcePoint" />
            <mxPoint x="-3480" y="191" as="targetPoint" />
          </mxGeometry>
        </mxCell>
        <mxCell id="XI2xmRr-VkAx-h7ioAOE-698" value="" style="endArrow=none;html=1;rounded=0;entryX=1;entryY=0.5;entryDx=0;entryDy=0;exitX=0;exitY=0.5;exitDx=0;exitDy=0;" parent="1" source="XI2xmRr-VkAx-h7ioAOE-684" edge="1">
          <mxGeometry width="50" height="50" relative="1" as="geometry">
            <mxPoint x="-3405" y="27" as="sourcePoint" />
            <mxPoint x="-3530" y="37" as="targetPoint" />
          </mxGeometry>
        </mxCell>
        <mxCell id="XI2xmRr-VkAx-h7ioAOE-699" value="products" style="whiteSpace=wrap;html=1;align=center;" parent="1" vertex="1">
          <mxGeometry x="-4135.9" y="69" width="100" height="40" as="geometry" />
        </mxCell>
        <mxCell id="XI2xmRr-VkAx-h7ioAOE-700" value="sell_price" style="ellipse;whiteSpace=wrap;html=1;align=center;" parent="1" vertex="1">
          <mxGeometry x="-4310" y="199" width="100" height="40" as="geometry" />
        </mxCell>
        <mxCell id="XI2xmRr-VkAx-h7ioAOE-701" value="id" style="ellipse;whiteSpace=wrap;html=1;align=center;fontStyle=4;" parent="1" vertex="1">
          <mxGeometry x="-4260" y="-41" width="100" height="40" as="geometry" />
        </mxCell>
        <mxCell id="XI2xmRr-VkAx-h7ioAOE-702" value="description" style="ellipse;whiteSpace=wrap;html=1;align=center;" parent="1" vertex="1">
          <mxGeometry x="-4020" y="169" width="100" height="40" as="geometry" />
        </mxCell>
        <mxCell id="XI2xmRr-VkAx-h7ioAOE-703" value="title" style="ellipse;whiteSpace=wrap;html=1;align=center;" parent="1" vertex="1">
          <mxGeometry x="-3930" y="129" width="100" height="40" as="geometry" />
        </mxCell>
        <mxCell id="XI2xmRr-VkAx-h7ioAOE-704" value="barcode" style="ellipse;whiteSpace=wrap;html=1;align=center;" parent="1" vertex="1">
          <mxGeometry x="-3940" y="9" width="100" height="40" as="geometry" />
        </mxCell>
        <mxCell id="XI2xmRr-VkAx-h7ioAOE-705" value="image" style="ellipse;whiteSpace=wrap;html=1;align=center;" parent="1" vertex="1">
          <mxGeometry x="-4030" y="-31" width="100" height="40" as="geometry" />
        </mxCell>
        <mxCell id="XI2xmRr-VkAx-h7ioAOE-706" value="category_id" style="ellipse;whiteSpace=wrap;html=1;align=center;" parent="1" vertex="1">
          <mxGeometry x="-4135.9" y="-41" width="100" height="40" as="geometry" />
        </mxCell>
        <mxCell id="XI2xmRr-VkAx-h7ioAOE-707" value="" style="endArrow=none;html=1;rounded=0;entryX=0.5;entryY=1;entryDx=0;entryDy=0;exitX=0.5;exitY=0;exitDx=0;exitDy=0;" parent="1" source="XI2xmRr-VkAx-h7ioAOE-699" target="XI2xmRr-VkAx-h7ioAOE-706" edge="1">
          <mxGeometry width="50" height="50" relative="1" as="geometry">
            <mxPoint x="-4095.9" y="59" as="sourcePoint" />
            <mxPoint x="-3515.9" y="229" as="targetPoint" />
          </mxGeometry>
        </mxCell>
        <mxCell id="XI2xmRr-VkAx-h7ioAOE-708" value="" style="endArrow=none;html=1;rounded=0;entryX=0.353;entryY=0.974;entryDx=0;entryDy=0;exitX=0.75;exitY=0;exitDx=0;exitDy=0;entryPerimeter=0;" parent="1" source="XI2xmRr-VkAx-h7ioAOE-699" target="XI2xmRr-VkAx-h7ioAOE-705" edge="1">
          <mxGeometry width="50" height="50" relative="1" as="geometry">
            <mxPoint x="-4015.9" y="89" as="sourcePoint" />
            <mxPoint x="-3965.9" y="59" as="targetPoint" />
          </mxGeometry>
        </mxCell>
        <mxCell id="XI2xmRr-VkAx-h7ioAOE-709" value="" style="endArrow=none;html=1;rounded=0;exitX=1;exitY=0;exitDx=0;exitDy=0;entryX=0.092;entryY=0.788;entryDx=0;entryDy=0;entryPerimeter=0;" parent="1" source="XI2xmRr-VkAx-h7ioAOE-699" target="XI2xmRr-VkAx-h7ioAOE-704" edge="1">
          <mxGeometry width="50" height="50" relative="1" as="geometry">
            <mxPoint x="-4005.9" y="119" as="sourcePoint" />
            <mxPoint x="-3955.9" y="99" as="targetPoint" />
          </mxGeometry>
        </mxCell>
        <mxCell id="XI2xmRr-VkAx-h7ioAOE-710" value="" style="endArrow=none;html=1;rounded=0;entryX=0.057;entryY=0.258;entryDx=0;entryDy=0;exitX=1;exitY=1;exitDx=0;exitDy=0;entryPerimeter=0;" parent="1" source="XI2xmRr-VkAx-h7ioAOE-699" target="XI2xmRr-VkAx-h7ioAOE-703" edge="1">
          <mxGeometry width="50" height="50" relative="1" as="geometry">
            <mxPoint x="-4045.9" y="149" as="sourcePoint" />
            <mxPoint x="-3970.9" y="224" as="targetPoint" />
          </mxGeometry>
        </mxCell>
        <mxCell id="XI2xmRr-VkAx-h7ioAOE-711" value="" style="endArrow=none;html=1;rounded=0;entryX=0.366;entryY=0.019;entryDx=0;entryDy=0;exitX=0.75;exitY=1;exitDx=0;exitDy=0;entryPerimeter=0;" parent="1" source="XI2xmRr-VkAx-h7ioAOE-699" target="XI2xmRr-VkAx-h7ioAOE-702" edge="1">
          <mxGeometry width="50" height="50" relative="1" as="geometry">
            <mxPoint x="-4115.9" y="119" as="sourcePoint" />
            <mxPoint x="-4105.9" y="219" as="targetPoint" />
          </mxGeometry>
        </mxCell>
        <mxCell id="XI2xmRr-VkAx-h7ioAOE-712" value="" style="endArrow=none;html=1;rounded=0;entryX=0.777;entryY=0.106;entryDx=0;entryDy=0;exitX=0.25;exitY=1;exitDx=0;exitDy=0;entryPerimeter=0;" parent="1" source="XI2xmRr-VkAx-h7ioAOE-699" target="XI2xmRr-VkAx-h7ioAOE-700" edge="1">
          <mxGeometry width="50" height="50" relative="1" as="geometry">
            <mxPoint x="-4060.9" y="149" as="sourcePoint" />
            <mxPoint x="-4135.9" y="205" as="targetPoint" />
          </mxGeometry>
        </mxCell>
        <mxCell id="XI2xmRr-VkAx-h7ioAOE-713" value="" style="endArrow=none;html=1;rounded=0;entryX=1;entryY=1;entryDx=0;entryDy=0;exitX=0.25;exitY=0;exitDx=0;exitDy=0;" parent="1" source="XI2xmRr-VkAx-h7ioAOE-699" target="XI2xmRr-VkAx-h7ioAOE-701" edge="1">
          <mxGeometry width="50" height="50" relative="1" as="geometry">
            <mxPoint x="-4075.9" y="89" as="sourcePoint" />
            <mxPoint x="-4145.9" y="89" as="targetPoint" />
          </mxGeometry>
        </mxCell>
        <mxCell id="XI2xmRr-VkAx-h7ioAOE-714" value="buy_price" style="ellipse;whiteSpace=wrap;html=1;align=center;" parent="1" vertex="1">
          <mxGeometry x="-4067.9999999999995" y="219" width="100" height="40" as="geometry" />
        </mxCell>
        <mxCell id="XI2xmRr-VkAx-h7ioAOE-715" value="" style="endArrow=none;html=1;rounded=0;entryX=0.452;entryY=-0.001;entryDx=0;entryDy=0;exitX=0.5;exitY=1;exitDx=0;exitDy=0;entryPerimeter=0;" parent="1" source="XI2xmRr-VkAx-h7ioAOE-699" target="XI2xmRr-VkAx-h7ioAOE-714" edge="1">
          <mxGeometry width="50" height="50" relative="1" as="geometry">
            <mxPoint x="-4015.9" y="209" as="sourcePoint" />
            <mxPoint x="-3955.9" y="326" as="targetPoint" />
          </mxGeometry>
        </mxCell>
        <mxCell id="XI2xmRr-VkAx-h7ioAOE-716" value="created_at" style="ellipse;whiteSpace=wrap;html=1;align=center;" parent="1" vertex="1">
          <mxGeometry x="-4377.9" y="109" width="100" height="40" as="geometry" />
        </mxCell>
        <mxCell id="XI2xmRr-VkAx-h7ioAOE-717" value="updated_at" style="ellipse;whiteSpace=wrap;html=1;align=center;" parent="1" vertex="1">
          <mxGeometry x="-4365.9" y="-21" width="100" height="40" as="geometry" />
        </mxCell>
        <mxCell id="XI2xmRr-VkAx-h7ioAOE-718" value="" style="endArrow=none;html=1;rounded=0;entryX=1.022;entryY=0.375;entryDx=0;entryDy=0;exitX=0;exitY=0.75;exitDx=0;exitDy=0;entryPerimeter=0;" parent="1" source="XI2xmRr-VkAx-h7ioAOE-699" target="XI2xmRr-VkAx-h7ioAOE-716" edge="1">
          <mxGeometry width="50" height="50" relative="1" as="geometry">
            <mxPoint x="-4088.9" y="179" as="sourcePoint" />
            <mxPoint x="-4185.9" y="283" as="targetPoint" />
          </mxGeometry>
        </mxCell>
        <mxCell id="XI2xmRr-VkAx-h7ioAOE-719" value="" style="endArrow=none;html=1;rounded=0;entryX=0.969;entryY=0.68;entryDx=0;entryDy=0;exitX=0;exitY=0;exitDx=0;exitDy=0;entryPerimeter=0;" parent="1" source="XI2xmRr-VkAx-h7ioAOE-699" target="XI2xmRr-VkAx-h7ioAOE-717" edge="1">
          <mxGeometry width="50" height="50" relative="1" as="geometry">
            <mxPoint x="-4110.9" y="119" as="sourcePoint" />
            <mxPoint x="-4225.9" y="155" as="targetPoint" />
          </mxGeometry>
        </mxCell>
        <mxCell id="XI2xmRr-VkAx-h7ioAOE-720" value="stock" style="ellipse;whiteSpace=wrap;html=1;align=center;" parent="1" vertex="1">
          <mxGeometry x="-4365.9" y="159" width="100" height="40" as="geometry" />
        </mxCell>
        <mxCell id="XI2xmRr-VkAx-h7ioAOE-721" value="" style="endArrow=none;html=1;rounded=0;entryX=1;entryY=0.5;entryDx=0;entryDy=0;exitX=0;exitY=0.75;exitDx=0;exitDy=0;" parent="1" target="XI2xmRr-VkAx-h7ioAOE-720" edge="1">
          <mxGeometry width="50" height="50" relative="1" as="geometry">
            <mxPoint x="-4117.9" y="109" as="sourcePoint" />
            <mxPoint x="-4255.9" y="124" as="targetPoint" />
          </mxGeometry>
        </mxCell>
        <mxCell id="XI2xmRr-VkAx-h7ioAOE-723" value="Mengelompokan" style="shape=rhombus;perimeter=rhombusPerimeter;whiteSpace=wrap;html=1;align=center;" parent="1" vertex="1">
          <mxGeometry x="-4690.9" y="250" width="120" height="60" as="geometry" />
        </mxCell>
        <mxCell id="XI2xmRr-VkAx-h7ioAOE-726" value="" style="endArrow=none;html=1;rounded=0;exitX=0.5;exitY=0;exitDx=0;exitDy=0;entryX=0.5;entryY=1;entryDx=0;entryDy=0;" parent="1" source="XI2xmRr-VkAx-h7ioAOE-408" target="XI2xmRr-VkAx-h7ioAOE-723" edge="1">
          <mxGeometry relative="1" as="geometry">
            <mxPoint x="-4090" y="180" as="sourcePoint" />
            <mxPoint x="-3930" y="180" as="targetPoint" />
          </mxGeometry>
        </mxCell>
        <mxCell id="XI2xmRr-VkAx-h7ioAOE-727" value="" style="endArrow=none;html=1;rounded=0;exitX=0.5;exitY=1;exitDx=0;exitDy=0;entryX=1;entryY=0.5;entryDx=0;entryDy=0;" parent="1" source="XI2xmRr-VkAx-h7ioAOE-699" target="XI2xmRr-VkAx-h7ioAOE-723" edge="1">
          <mxGeometry relative="1" as="geometry">
            <mxPoint x="-4610" y="420" as="sourcePoint" />
            <mxPoint x="-4610" y="330" as="targetPoint" />
            <Array as="points">
              <mxPoint x="-4086" y="280" />
            </Array>
          </mxGeometry>
        </mxCell>
        <mxCell id="XI2xmRr-VkAx-h7ioAOE-728" value="Terdapat" style="shape=rhombus;perimeter=rhombusPerimeter;whiteSpace=wrap;html=1;align=center;" parent="1" vertex="1">
          <mxGeometry x="-4495.9" y="60" width="120" height="60" as="geometry" />
        </mxCell>
        <mxCell id="XI2xmRr-VkAx-h7ioAOE-729" value="" style="endArrow=none;html=1;rounded=0;exitX=1;exitY=0.5;exitDx=0;exitDy=0;entryX=0;entryY=0.5;entryDx=0;entryDy=0;" parent="1" source="XI2xmRr-VkAx-h7ioAOE-452" target="XI2xmRr-VkAx-h7ioAOE-728" edge="1">
          <mxGeometry relative="1" as="geometry">
            <mxPoint x="-4640" y="430" as="sourcePoint" />
            <mxPoint x="-4640" y="340" as="targetPoint" />
          </mxGeometry>
        </mxCell>
        <mxCell id="XI2xmRr-VkAx-h7ioAOE-730" value="" style="endArrow=none;html=1;rounded=0;exitX=1;exitY=0.5;exitDx=0;exitDy=0;entryX=0;entryY=0.5;entryDx=0;entryDy=0;" parent="1" source="XI2xmRr-VkAx-h7ioAOE-728" target="XI2xmRr-VkAx-h7ioAOE-699" edge="1">
          <mxGeometry relative="1" as="geometry">
            <mxPoint x="-4375.9" y="79" as="sourcePoint" />
            <mxPoint x="-4455" y="109" as="targetPoint" />
          </mxGeometry>
        </mxCell>
        <mxCell id="XI2xmRr-VkAx-h7ioAOE-731" value="Memiliki" style="shape=rhombus;perimeter=rhombusPerimeter;whiteSpace=wrap;html=1;align=center;" parent="1" vertex="1">
          <mxGeometry x="-4700.9" y="-120" width="120" height="60" as="geometry" />
        </mxCell>
        <mxCell id="XI2xmRr-VkAx-h7ioAOE-735" value="" style="endArrow=none;html=1;rounded=0;exitX=0.5;exitY=0;exitDx=0;exitDy=0;entryX=0.5;entryY=1;entryDx=0;entryDy=0;" parent="1" source="XI2xmRr-VkAx-h7ioAOE-452" target="XI2xmRr-VkAx-h7ioAOE-731" edge="1">
          <mxGeometry relative="1" as="geometry">
            <mxPoint x="-4560" y="80" as="sourcePoint" />
            <mxPoint x="-4465" y="80" as="targetPoint" />
          </mxGeometry>
        </mxCell>
        <mxCell id="XI2xmRr-VkAx-h7ioAOE-738" value="" style="endArrow=none;html=1;rounded=0;exitX=0.5;exitY=1;exitDx=0;exitDy=0;entryX=1;entryY=0.5;entryDx=0;entryDy=0;" parent="1" source="XI2xmRr-VkAx-h7ioAOE-490" target="XI2xmRr-VkAx-h7ioAOE-731" edge="1">
          <mxGeometry relative="1" as="geometry">
            <mxPoint x="-4650" y="130" as="sourcePoint" />
            <mxPoint x="-4650" as="targetPoint" />
            <Array as="points">
              <mxPoint x="-4080" y="-90" />
            </Array>
          </mxGeometry>
        </mxCell>
        <mxCell id="XI2xmRr-VkAx-h7ioAOE-739" value="Melakukan" style="shape=rhombus;perimeter=rhombusPerimeter;whiteSpace=wrap;html=1;align=center;" parent="1" vertex="1">
          <mxGeometry x="-3557.9" y="-190" width="120" height="60" as="geometry" />
        </mxCell>
        <mxCell id="XI2xmRr-VkAx-h7ioAOE-740" value="" style="endArrow=none;html=1;rounded=0;exitX=0;exitY=0.5;exitDx=0;exitDy=0;entryX=1;entryY=0.5;entryDx=0;entryDy=0;" parent="1" source="XI2xmRr-VkAx-h7ioAOE-739" target="XI2xmRr-VkAx-h7ioAOE-490" edge="1">
          <mxGeometry relative="1" as="geometry">
            <mxPoint x="-3950" y="-30" as="sourcePoint" />
            <mxPoint x="-3950" y="-160" as="targetPoint" />
          </mxGeometry>
        </mxCell>
        <mxCell id="XI2xmRr-VkAx-h7ioAOE-741" value="" style="endArrow=none;html=1;rounded=0;exitX=0;exitY=0.5;exitDx=0;exitDy=0;entryX=1;entryY=0.5;entryDx=0;entryDy=0;" parent="1" source="XI2xmRr-VkAx-h7ioAOE-536" target="XI2xmRr-VkAx-h7ioAOE-739" edge="1">
          <mxGeometry relative="1" as="geometry">
            <mxPoint x="-3380" y="-10" as="sourcePoint" />
            <mxPoint x="-3380" y="-140" as="targetPoint" />
          </mxGeometry>
        </mxCell>
        <mxCell id="XI2xmRr-VkAx-h7ioAOE-742" value="Dilakukan" style="shape=rhombus;perimeter=rhombusPerimeter;whiteSpace=wrap;html=1;align=center;" parent="1" vertex="1">
          <mxGeometry x="-2780" y="-110" width="120" height="60" as="geometry" />
        </mxCell>
        <mxCell id="XI2xmRr-VkAx-h7ioAOE-743" value="" style="endArrow=none;html=1;rounded=0;exitX=0;exitY=0.5;exitDx=0;exitDy=0;entryX=1;entryY=0.5;entryDx=0;entryDy=0;" parent="1" source="XI2xmRr-VkAx-h7ioAOE-742" target="XI2xmRr-VkAx-h7ioAOE-536" edge="1">
          <mxGeometry relative="1" as="geometry">
            <mxPoint x="-2532" y="-140" as="sourcePoint" />
            <mxPoint x="-2890" y="-140" as="targetPoint" />
            <Array as="points">
              <mxPoint x="-2780" y="-160" />
            </Array>
          </mxGeometry>
        </mxCell>
        <mxCell id="XI2xmRr-VkAx-h7ioAOE-744" value="" style="endArrow=none;html=1;rounded=0;exitX=0;exitY=0.5;exitDx=0;exitDy=0;entryX=1;entryY=0.5;entryDx=0;entryDy=0;fontStyle=1" parent="1" source="XI2xmRr-VkAx-h7ioAOE-559" target="XI2xmRr-VkAx-h7ioAOE-742" edge="1">
          <mxGeometry relative="1" as="geometry">
            <mxPoint x="-2078" y="-100" as="sourcePoint" />
            <mxPoint x="-2550" y="-100" as="targetPoint" />
          </mxGeometry>
        </mxCell>
        <mxCell id="XI2xmRr-VkAx-h7ioAOE-750" value="Mencatat" style="shape=rhombus;perimeter=rhombusPerimeter;whiteSpace=wrap;html=1;align=center;" parent="1" vertex="1">
          <mxGeometry x="-2660" y="-30" width="120" height="60" as="geometry" />
        </mxCell>
        <mxCell id="XI2xmRr-VkAx-h7ioAOE-751" value="" style="endArrow=none;html=1;rounded=0;exitX=0;exitY=0.5;exitDx=0;exitDy=0;entryX=0.75;entryY=1;entryDx=0;entryDy=0;" parent="1" source="XI2xmRr-VkAx-h7ioAOE-750" target="XI2xmRr-VkAx-h7ioAOE-536" edge="1">
          <mxGeometry relative="1" as="geometry">
            <mxPoint x="-2690" y="-90" as="sourcePoint" />
            <mxPoint x="-2890" y="-170" as="targetPoint" />
            <Array as="points">
              <mxPoint x="-3005" />
            </Array>
          </mxGeometry>
        </mxCell>
        <mxCell id="XI2xmRr-VkAx-h7ioAOE-752" value="" style="endArrow=none;html=1;rounded=0;exitX=0;exitY=0.5;exitDx=0;exitDy=0;entryX=1;entryY=0.5;entryDx=0;entryDy=0;" parent="1" source="XI2xmRr-VkAx-h7ioAOE-585" target="XI2xmRr-VkAx-h7ioAOE-750" edge="1">
          <mxGeometry relative="1" as="geometry">
            <mxPoint x="-2409" y="-60" as="sourcePoint" />
            <mxPoint x="-2590" y="-60" as="targetPoint" />
            <Array as="points">
              <mxPoint x="-2540" y="250" />
            </Array>
          </mxGeometry>
        </mxCell>
        <mxCell id="XI2xmRr-VkAx-h7ioAOE-753" value="Memiliki" style="shape=rhombus;perimeter=rhombusPerimeter;whiteSpace=wrap;html=1;align=center;" parent="1" vertex="1">
          <mxGeometry x="-2610" y="350" width="120" height="60" as="geometry" />
        </mxCell>
        <mxCell id="XI2xmRr-VkAx-h7ioAOE-758" value="" style="endArrow=none;html=1;rounded=0;exitX=0;exitY=0.5;exitDx=0;exitDy=0;entryX=0.5;entryY=1;entryDx=0;entryDy=0;" parent="1" source="XI2xmRr-VkAx-h7ioAOE-753" target="XI2xmRr-VkAx-h7ioAOE-661" edge="1">
          <mxGeometry relative="1" as="geometry">
            <mxPoint x="-2509" y="380" as="sourcePoint" />
            <mxPoint x="-2690" y="380" as="targetPoint" />
            <Array as="points">
              <mxPoint x="-2675" y="380" />
            </Array>
          </mxGeometry>
        </mxCell>
        <mxCell id="XI2xmRr-VkAx-h7ioAOE-759" value="" style="endArrow=none;html=1;rounded=0;exitX=0.5;exitY=0;exitDx=0;exitDy=0;entryX=1;entryY=0.5;entryDx=0;entryDy=0;fontStyle=1" parent="1" source="XI2xmRr-VkAx-h7ioAOE-598" target="XI2xmRr-VkAx-h7ioAOE-753" edge="1">
          <mxGeometry relative="1" as="geometry">
            <mxPoint x="-2219" y="380" as="sourcePoint" />
            <mxPoint x="-2400" y="380" as="targetPoint" />
            <Array as="points">
              <mxPoint x="-2430" y="380" />
            </Array>
          </mxGeometry>
        </mxCell>
        <mxCell id="XI2xmRr-VkAx-h7ioAOE-761" value="" style="endArrow=none;html=1;rounded=0;exitX=0;exitY=0.5;exitDx=0;exitDy=0;entryX=0.5;entryY=0;entryDx=0;entryDy=0;fontStyle=1" parent="1" source="XI2xmRr-VkAx-h7ioAOE-598" target="XI2xmRr-VkAx-h7ioAOE-654" edge="1">
          <mxGeometry relative="1" as="geometry">
            <mxPoint x="-2780" y="510" as="sourcePoint" />
            <mxPoint x="-2790" y="550" as="targetPoint" />
            <Array as="points">
              <mxPoint x="-2780" y="480" />
            </Array>
          </mxGeometry>
        </mxCell>
        <mxCell id="XI2xmRr-VkAx-h7ioAOE-763" value="Memiliki" style="shape=rhombus;perimeter=rhombusPerimeter;whiteSpace=wrap;html=1;align=center;" parent="1" vertex="1">
          <mxGeometry x="-2940" y="300" width="120" height="60" as="geometry" />
        </mxCell>
        <mxCell id="XI2xmRr-VkAx-h7ioAOE-764" value="" style="endArrow=none;html=1;rounded=0;entryX=1;entryY=0.5;entryDx=0;entryDy=0;fontStyle=1;" parent="1" target="XI2xmRr-VkAx-h7ioAOE-763" edge="1">
          <mxGeometry relative="1" as="geometry">
            <mxPoint x="-2694" y="320" as="sourcePoint" />
            <mxPoint x="-2790" y="650" as="targetPoint" />
            <Array as="points">
              <mxPoint x="-2694" y="380" />
              <mxPoint x="-2770" y="380" />
              <mxPoint x="-2770" y="330" />
            </Array>
          </mxGeometry>
        </mxCell>
        <mxCell id="XI2xmRr-VkAx-h7ioAOE-766" value="" style="endArrow=none;html=1;rounded=0;exitX=0.5;exitY=1;exitDx=0;exitDy=0;entryX=0.75;entryY=0;entryDx=0;entryDy=0;fontStyle=1" parent="1" source="XI2xmRr-VkAx-h7ioAOE-763" target="XI2xmRr-VkAx-h7ioAOE-666" edge="1">
          <mxGeometry relative="1" as="geometry">
            <mxPoint x="-3010" y="300" as="sourcePoint" />
            <mxPoint x="-3010" y="410" as="targetPoint" />
            <Array as="points">
              <mxPoint x="-2880" y="400" />
              <mxPoint x="-2970" y="400" />
            </Array>
          </mxGeometry>
        </mxCell>
        <mxCell id="XI2xmRr-VkAx-h7ioAOE-772" value="" style="endArrow=none;html=1;rounded=0;entryX=0.351;entryY=-0.015;entryDx=0;entryDy=0;exitX=0.5;exitY=1;exitDx=0;exitDy=0;entryPerimeter=0;" parent="1" source="XI2xmRr-VkAx-h7ioAOE-677" target="XI2xmRr-VkAx-h7ioAOE-666" edge="1">
          <mxGeometry width="50" height="50" relative="1" as="geometry">
            <mxPoint x="-3085" y="390" as="sourcePoint" />
            <mxPoint x="-3015" y="360" as="targetPoint" />
            <Array as="points">
              <mxPoint x="-3145" y="390" />
              <mxPoint x="-3009" y="390" />
            </Array>
          </mxGeometry>
        </mxCell>
        <mxCell id="XI2xmRr-VkAx-h7ioAOE-773" value="Terjual" style="shape=rhombus;perimeter=rhombusPerimeter;whiteSpace=wrap;html=1;align=center;" parent="1" vertex="1">
          <mxGeometry x="-3750" y="-31" width="120" height="60" as="geometry" />
        </mxCell>
        <mxCell id="XI2xmRr-VkAx-h7ioAOE-774" value="" style="endArrow=none;html=1;rounded=0;entryX=1;entryY=0.5;entryDx=0;entryDy=0;exitX=0;exitY=0.5;exitDx=0;exitDy=0;" parent="1" source="XI2xmRr-VkAx-h7ioAOE-773" target="XI2xmRr-VkAx-h7ioAOE-699" edge="1">
          <mxGeometry width="50" height="50" relative="1" as="geometry">
            <mxPoint x="-3660" y="40" as="sourcePoint" />
            <mxPoint x="-3760" y="80" as="targetPoint" />
            <Array as="points">
              <mxPoint x="-3790" y="-1" />
              <mxPoint x="-3790" y="89" />
            </Array>
          </mxGeometry>
        </mxCell>
        <mxCell id="XI2xmRr-VkAx-h7ioAOE-775" value="" style="endArrow=none;html=1;rounded=0;entryX=1;entryY=0.5;entryDx=0;entryDy=0;exitX=0;exitY=0.5;exitDx=0;exitDy=0;" parent="1" source="XI2xmRr-VkAx-h7ioAOE-684" target="XI2xmRr-VkAx-h7ioAOE-773" edge="1">
          <mxGeometry width="50" height="50" relative="1" as="geometry">
            <mxPoint x="-3410" y="20" as="sourcePoint" />
            <mxPoint x="-3510" y="60" as="targetPoint" />
          </mxGeometry>
        </mxCell>
        <mxCell id="XI2xmRr-VkAx-h7ioAOE-776" value="" style="endArrow=none;html=1;rounded=0;entryX=0.5;entryY=0;entryDx=0;entryDy=0;exitX=0;exitY=0.5;exitDx=0;exitDy=0;" parent="1" source="XI2xmRr-VkAx-h7ioAOE-777" target="XI2xmRr-VkAx-h7ioAOE-684" edge="1">
          <mxGeometry width="50" height="50" relative="1" as="geometry">
            <mxPoint x="-3380" y="-130" as="sourcePoint" />
            <mxPoint x="-3110" y="-20" as="targetPoint" />
            <Array as="points">
              <mxPoint x="-3380" y="-100" />
            </Array>
          </mxGeometry>
        </mxCell>
        <mxCell id="XI2xmRr-VkAx-h7ioAOE-777" value="Memiliki" style="shape=rhombus;perimeter=rhombusPerimeter;whiteSpace=wrap;html=1;align=center;" parent="1" vertex="1">
          <mxGeometry x="-3280" y="-130" width="120" height="60" as="geometry" />
        </mxCell>
        <mxCell id="XI2xmRr-VkAx-h7ioAOE-778" value="" style="endArrow=none;html=1;rounded=0;entryX=1;entryY=0.5;entryDx=0;entryDy=0;exitX=0.5;exitY=1;exitDx=0;exitDy=0;" parent="1" source="XI2xmRr-VkAx-h7ioAOE-536" target="XI2xmRr-VkAx-h7ioAOE-777" edge="1">
          <mxGeometry width="50" height="50" relative="1" as="geometry">
            <mxPoint x="-3250" y="-110" as="sourcePoint" />
            <mxPoint x="-3350" y="-33" as="targetPoint" />
            <Array as="points">
              <mxPoint x="-3030" y="-100" />
            </Array>
          </mxGeometry>
        </mxCell>
        <mxCell id="XI2xmRr-VkAx-h7ioAOE-780" value="N" style="text;html=1;align=center;verticalAlign=middle;resizable=0;points=[];autosize=1;strokeColor=none;fillColor=none;fontSize=14;fontStyle=1" parent="1" vertex="1">
          <mxGeometry x="-4670" y="20" width="30" height="30" as="geometry" />
        </mxCell>
        <mxCell id="XI2xmRr-VkAx-h7ioAOE-781" value="&lt;b&gt;1&lt;/b&gt;" style="text;html=1;align=center;verticalAlign=middle;resizable=0;points=[];autosize=1;strokeColor=none;fillColor=none;fontSize=14;" parent="1" vertex="1">
          <mxGeometry x="-4110" y="-130" width="30" height="30" as="geometry" />
        </mxCell>
        <mxCell id="XI2xmRr-VkAx-h7ioAOE-782" value="&lt;b&gt;1&lt;/b&gt;" style="text;html=1;align=center;verticalAlign=middle;resizable=0;points=[];autosize=1;strokeColor=none;fillColor=none;fontSize=14;" parent="1" vertex="1">
          <mxGeometry x="-4030" y="-160" width="30" height="30" as="geometry" />
        </mxCell>
        <mxCell id="XI2xmRr-VkAx-h7ioAOE-784" value="&lt;b&gt;M&lt;/b&gt;" style="text;html=1;align=center;verticalAlign=middle;resizable=0;points=[];autosize=1;strokeColor=none;fillColor=none;fontSize=14;" parent="1" vertex="1">
          <mxGeometry x="-3115" y="-160" width="40" height="30" as="geometry" />
        </mxCell>
        <mxCell id="XI2xmRr-VkAx-h7ioAOE-785" value="&lt;b&gt;N&lt;/b&gt;" style="text;html=1;align=center;verticalAlign=middle;resizable=0;points=[];autosize=1;strokeColor=none;fillColor=none;fontSize=14;" parent="1" vertex="1">
          <mxGeometry x="-2780" y="-160" width="30" height="30" as="geometry" />
        </mxCell>
        <mxCell id="XI2xmRr-VkAx-h7ioAOE-787" value="&lt;b&gt;1&lt;/b&gt;" style="text;html=1;align=center;verticalAlign=middle;resizable=0;points=[];autosize=1;strokeColor=none;fillColor=none;fontSize=14;" parent="1" vertex="1">
          <mxGeometry x="-2509.1" y="-110" width="30" height="30" as="geometry" />
        </mxCell>
        <mxCell id="XI2xmRr-VkAx-h7ioAOE-788" value="&lt;b&gt;1&lt;/b&gt;" style="text;html=1;align=center;verticalAlign=middle;resizable=0;points=[];autosize=1;strokeColor=none;fillColor=none;fontSize=14;" parent="1" vertex="1">
          <mxGeometry x="-3005" y="-140" width="30" height="30" as="geometry" />
        </mxCell>
        <mxCell id="XI2xmRr-VkAx-h7ioAOE-789" value="&lt;b&gt;1&lt;/b&gt;" style="text;html=1;align=center;verticalAlign=middle;resizable=0;points=[];autosize=1;strokeColor=none;fillColor=none;fontSize=14;" parent="1" vertex="1">
          <mxGeometry x="-2509.1" y="220" width="30" height="30" as="geometry" />
        </mxCell>
        <mxCell id="XI2xmRr-VkAx-h7ioAOE-790" value="&lt;b&gt;1&lt;/b&gt;" style="text;html=1;align=center;verticalAlign=middle;resizable=0;points=[];autosize=1;strokeColor=none;fillColor=none;fontSize=14;" parent="1" vertex="1">
          <mxGeometry x="-2509.1" y="450" width="30" height="30" as="geometry" />
        </mxCell>
        <mxCell id="XI2xmRr-VkAx-h7ioAOE-791" value="&lt;b&gt;1&lt;/b&gt;" style="text;html=1;align=center;verticalAlign=middle;resizable=0;points=[];autosize=1;strokeColor=none;fillColor=none;fontSize=14;" parent="1" vertex="1">
          <mxGeometry x="-2430" y="415" width="30" height="30" as="geometry" />
        </mxCell>
        <mxCell id="XI2xmRr-VkAx-h7ioAOE-792" value="&lt;b&gt;M&lt;/b&gt;" style="text;html=1;align=center;verticalAlign=middle;resizable=0;points=[];autosize=1;strokeColor=none;fillColor=none;fontSize=14;" parent="1" vertex="1">
          <mxGeometry x="-2785" y="590" width="40" height="30" as="geometry" />
        </mxCell>
        <mxCell id="XI2xmRr-VkAx-h7ioAOE-794" value="&lt;b&gt;M&lt;/b&gt;" style="text;html=1;align=center;verticalAlign=middle;resizable=0;points=[];autosize=1;strokeColor=none;fillColor=none;fontSize=14;" parent="1" vertex="1">
          <mxGeometry x="-2678" y="320" width="40" height="30" as="geometry" />
        </mxCell>
        <mxCell id="XI2xmRr-VkAx-h7ioAOE-795" value="&lt;b&gt;M&lt;/b&gt;" style="text;html=1;align=center;verticalAlign=middle;resizable=0;points=[];autosize=1;strokeColor=none;fillColor=none;fontSize=14;" parent="1" vertex="1">
          <mxGeometry x="-2725" y="380" width="40" height="30" as="geometry" />
        </mxCell>
        <mxCell id="XI2xmRr-VkAx-h7ioAOE-796" value="&lt;b&gt;1&lt;/b&gt;" style="text;html=1;align=center;verticalAlign=middle;resizable=0;points=[];autosize=1;strokeColor=none;fillColor=none;fontSize=14;" parent="1" vertex="1">
          <mxGeometry x="-2970" y="430" width="30" height="30" as="geometry" />
        </mxCell>
        <mxCell id="XI2xmRr-VkAx-h7ioAOE-797" value="&lt;b&gt;1&lt;/b&gt;" style="text;html=1;align=center;verticalAlign=middle;resizable=0;points=[];autosize=1;strokeColor=none;fillColor=none;fontSize=14;" parent="1" vertex="1">
          <mxGeometry x="-3040" y="430" width="30" height="30" as="geometry" />
        </mxCell>
        <mxCell id="XI2xmRr-VkAx-h7ioAOE-798" value="&lt;b&gt;M&lt;/b&gt;" style="text;html=1;align=center;verticalAlign=middle;resizable=0;points=[];autosize=1;strokeColor=none;fillColor=none;fontSize=14;" parent="1" vertex="1">
          <mxGeometry x="-3182" y="326" width="40" height="30" as="geometry" />
        </mxCell>
        <mxCell id="XI2xmRr-VkAx-h7ioAOE-799" value="N" style="text;html=1;align=center;verticalAlign=middle;resizable=0;points=[];autosize=1;strokeColor=none;fillColor=none;fontSize=14;fontStyle=1" parent="1" vertex="1">
          <mxGeometry x="-3380" y="-53" width="30" height="30" as="geometry" />
        </mxCell>
        <mxCell id="XI2xmRr-VkAx-h7ioAOE-800" value="&lt;b&gt;1&lt;/b&gt;" style="text;html=1;align=center;verticalAlign=middle;resizable=0;points=[];autosize=1;strokeColor=none;fillColor=none;fontSize=14;" parent="1" vertex="1">
          <mxGeometry x="-3060" y="-140" width="30" height="30" as="geometry" />
        </mxCell>
        <mxCell id="XI2xmRr-VkAx-h7ioAOE-801" value="&lt;b&gt;N&lt;/b&gt;" style="text;html=1;align=center;verticalAlign=middle;resizable=0;points=[];autosize=1;strokeColor=none;fillColor=none;fontSize=14;" parent="1" vertex="1">
          <mxGeometry x="-3460" y="-33" width="30" height="30" as="geometry" />
        </mxCell>
        <mxCell id="XI2xmRr-VkAx-h7ioAOE-802" value="&lt;b&gt;1&lt;/b&gt;" style="text;html=1;align=center;verticalAlign=middle;resizable=0;points=[];autosize=1;strokeColor=none;fillColor=none;fontSize=14;" parent="1" vertex="1">
          <mxGeometry x="-3970" y="60" width="30" height="30" as="geometry" />
        </mxCell>
        <mxCell id="XI2xmRr-VkAx-h7ioAOE-803" value="&lt;b&gt;N&lt;/b&gt;" style="text;html=1;align=center;verticalAlign=middle;resizable=0;points=[];autosize=1;strokeColor=none;fillColor=none;fontSize=14;" parent="1" vertex="1">
          <mxGeometry x="-4110" y="130" width="30" height="30" as="geometry" />
        </mxCell>
        <mxCell id="XI2xmRr-VkAx-h7ioAOE-804" value="&lt;b&gt;1&lt;/b&gt;" style="text;html=1;align=center;verticalAlign=middle;resizable=0;points=[];autosize=1;strokeColor=none;fillColor=none;fontSize=14;" parent="1" vertex="1">
          <mxGeometry x="-4630" y="360" width="30" height="30" as="geometry" />
        </mxCell>
        <mxCell id="XI2xmRr-VkAx-h7ioAOE-805" value="&lt;b&gt;1&lt;/b&gt;" style="text;html=1;align=center;verticalAlign=middle;resizable=0;points=[];autosize=1;strokeColor=none;fillColor=none;fontSize=14;" parent="1" vertex="1">
          <mxGeometry x="-4205" y="60" width="30" height="30" as="geometry" />
        </mxCell>
        <mxCell id="XI2xmRr-VkAx-h7ioAOE-806" value="N" style="text;html=1;align=center;verticalAlign=middle;resizable=0;points=[];autosize=1;strokeColor=none;fillColor=none;fontSize=14;fontStyle=1" parent="1" vertex="1">
          <mxGeometry x="-4575.9" y="60" width="30" height="30" as="geometry" />
        </mxCell>
        <mxCell id="XI2xmRr-VkAx-h7ioAOE-807" value="Berperan Sebagai" style="shape=rhombus;perimeter=rhombusPerimeter;whiteSpace=wrap;html=1;align=center;" parent="1" vertex="1">
          <mxGeometry x="-3280" y="710" width="120" height="60" as="geometry" />
        </mxCell>
        <mxCell id="XI2xmRr-VkAx-h7ioAOE-808" value="" style="endArrow=none;html=1;rounded=0;exitX=0.5;exitY=1;exitDx=0;exitDy=0;entryX=0;entryY=0.5;entryDx=0;entryDy=0;" parent="1" source="XI2xmRr-VkAx-h7ioAOE-807" target="XI2xmRr-VkAx-h7ioAOE-490" edge="1">
          <mxGeometry relative="1" as="geometry">
            <mxPoint x="-3698" y="-170" as="sourcePoint" />
            <mxPoint x="-4170" y="-170" as="targetPoint" />
            <Array as="points">
              <mxPoint x="-3220" y="870" />
              <mxPoint x="-3380" y="870" />
              <mxPoint x="-4960" y="870" />
              <mxPoint x="-4970" y="-160" />
            </Array>
          </mxGeometry>
        </mxCell>
        <mxCell id="XI2xmRr-VkAx-h7ioAOE-810" value="" style="endArrow=none;html=1;rounded=0;entryX=1;entryY=0.5;entryDx=0;entryDy=0;exitX=0.5;exitY=1;exitDx=0;exitDy=0;" parent="1" source="XI2xmRr-VkAx-h7ioAOE-666" target="XI2xmRr-VkAx-h7ioAOE-807" edge="1">
          <mxGeometry width="50" height="50" relative="1" as="geometry">
            <mxPoint x="-3150" y="470" as="sourcePoint" />
            <mxPoint x="-3350" y="472" as="targetPoint" />
            <Array as="points">
              <mxPoint x="-2995" y="740" />
            </Array>
          </mxGeometry>
        </mxCell>
        <mxCell id="XI2xmRr-VkAx-h7ioAOE-811" value="1" style="text;html=1;align=center;verticalAlign=middle;resizable=0;points=[];autosize=1;strokeColor=none;fillColor=none;fontSize=14;fontStyle=1" parent="1" vertex="1">
          <mxGeometry x="-4165" y="-160" width="30" height="30" as="geometry" />
        </mxCell>
        <mxCell id="XI2xmRr-VkAx-h7ioAOE-814" value="&lt;b&gt;N&lt;/b&gt;" style="text;html=1;align=center;verticalAlign=middle;resizable=0;points=[];autosize=1;strokeColor=none;fillColor=none;fontSize=14;" parent="1" vertex="1">
          <mxGeometry x="-3310" y="480" width="30" height="30" as="geometry" />
        </mxCell>
        <mxCell id="XI2xmRr-VkAx-h7ioAOE-815" value="&lt;font style=&quot;font-size: 40px;&quot;&gt;ERD &lt;i style=&quot;&quot;&gt;(Entity Relationship Diagram)&lt;/i&gt; Notasi Chen&lt;/font&gt;" style="text;html=1;align=center;verticalAlign=middle;resizable=0;points=[];autosize=1;strokeColor=none;fillColor=none;" parent="1" vertex="1">
          <mxGeometry x="-5005" y="-495" width="870" height="60" as="geometry" />
        </mxCell>
        <mxCell id="aKizHm-7mSLxc9vcDoLu-2" value="purchase_order" style="whiteSpace=wrap;html=1;align=center;" vertex="1" parent="1">
          <mxGeometry x="-3845.55" y="226" width="100" height="40" as="geometry" />
        </mxCell>
        <mxCell id="aKizHm-7mSLxc9vcDoLu-3" value="id" style="ellipse;whiteSpace=wrap;html=1;align=center;fontStyle=4;" vertex="1" parent="1">
          <mxGeometry x="-3666.4500000000003" y="110" width="100" height="40" as="geometry" />
        </mxCell>
        <mxCell id="aKizHm-7mSLxc9vcDoLu-4" value="notes" style="ellipse;whiteSpace=wrap;html=1;align=center;" vertex="1" parent="1">
          <mxGeometry x="-3666.4500000000003" y="280" width="100" height="40" as="geometry" />
        </mxCell>
        <mxCell id="aKizHm-7mSLxc9vcDoLu-5" value="order_date" style="ellipse;whiteSpace=wrap;html=1;align=center;" vertex="1" parent="1">
          <mxGeometry x="-3666.4500000000003" y="206" width="100" height="40" as="geometry" />
        </mxCell>
        <mxCell id="aKizHm-7mSLxc9vcDoLu-6" value="customer_id" style="ellipse;whiteSpace=wrap;html=1;align=center;" vertex="1" parent="1">
          <mxGeometry x="-3666.4500000000003" y="160" width="100" height="40" as="geometry" />
        </mxCell>
        <mxCell id="aKizHm-7mSLxc9vcDoLu-7" value="" style="endArrow=none;html=1;rounded=0;exitX=0.851;exitY=-0.007;exitDx=0;exitDy=0;entryX=0;entryY=0.5;entryDx=0;entryDy=0;exitPerimeter=0;" edge="1" parent="1" source="aKizHm-7mSLxc9vcDoLu-2" target="aKizHm-7mSLxc9vcDoLu-6">
          <mxGeometry width="50" height="50" relative="1" as="geometry">
            <mxPoint x="-3781.4500000000003" y="390" as="sourcePoint" />
            <mxPoint x="-3666.4500000000003" y="420" as="targetPoint" />
          </mxGeometry>
        </mxCell>
        <mxCell id="aKizHm-7mSLxc9vcDoLu-8" value="" style="endArrow=none;html=1;rounded=0;entryX=0.006;entryY=0.394;entryDx=0;entryDy=0;exitX=1;exitY=0.25;exitDx=0;exitDy=0;entryPerimeter=0;" edge="1" parent="1" source="aKizHm-7mSLxc9vcDoLu-2" target="aKizHm-7mSLxc9vcDoLu-5">
          <mxGeometry width="50" height="50" relative="1" as="geometry">
            <mxPoint x="-3701.4500000000003" y="420" as="sourcePoint" />
            <mxPoint x="-3651.4500000000003" y="390" as="targetPoint" />
          </mxGeometry>
        </mxCell>
        <mxCell id="aKizHm-7mSLxc9vcDoLu-9" value="" style="endArrow=none;html=1;rounded=0;exitX=1;exitY=0.75;exitDx=0;exitDy=0;entryX=0.1;entryY=0.198;entryDx=0;entryDy=0;entryPerimeter=0;" edge="1" parent="1" source="aKizHm-7mSLxc9vcDoLu-2" target="aKizHm-7mSLxc9vcDoLu-4">
          <mxGeometry width="50" height="50" relative="1" as="geometry">
            <mxPoint x="-3691.4500000000003" y="450" as="sourcePoint" />
            <mxPoint x="-3641.4500000000003" y="430" as="targetPoint" />
          </mxGeometry>
        </mxCell>
        <mxCell id="aKizHm-7mSLxc9vcDoLu-10" value="" style="endArrow=none;html=1;rounded=0;exitX=0.5;exitY=0;exitDx=0;exitDy=0;" edge="1" parent="1" source="aKizHm-7mSLxc9vcDoLu-2" target="aKizHm-7mSLxc9vcDoLu-3">
          <mxGeometry width="50" height="50" relative="1" as="geometry">
            <mxPoint x="-3761.4500000000003" y="420" as="sourcePoint" />
            <mxPoint x="-3831.4500000000003" y="420" as="targetPoint" />
          </mxGeometry>
        </mxCell>
        <mxCell id="aKizHm-7mSLxc9vcDoLu-11" value="created_at" style="ellipse;whiteSpace=wrap;html=1;align=center;" vertex="1" parent="1">
          <mxGeometry x="-3666.4500000000003" y="330" width="100" height="40" as="geometry" />
        </mxCell>
        <mxCell id="aKizHm-7mSLxc9vcDoLu-12" value="updated_at" style="ellipse;whiteSpace=wrap;html=1;align=center;" vertex="1" parent="1">
          <mxGeometry x="-3680.0000000000005" y="380" width="100" height="40" as="geometry" />
        </mxCell>
        <mxCell id="aKizHm-7mSLxc9vcDoLu-13" value="" style="endArrow=none;html=1;rounded=0;exitX=0.909;exitY=1.029;exitDx=0;exitDy=0;exitPerimeter=0;entryX=0.097;entryY=0.201;entryDx=0;entryDy=0;entryPerimeter=0;" edge="1" parent="1" source="aKizHm-7mSLxc9vcDoLu-2" target="aKizHm-7mSLxc9vcDoLu-11">
          <mxGeometry width="50" height="50" relative="1" as="geometry">
            <mxPoint x="-3774.4500000000003" y="510" as="sourcePoint" />
            <mxPoint x="-3656.4500000000003" y="330" as="targetPoint" />
          </mxGeometry>
        </mxCell>
        <mxCell id="aKizHm-7mSLxc9vcDoLu-14" value="" style="endArrow=none;html=1;rounded=0;entryX=0;entryY=0;entryDx=0;entryDy=0;exitX=0.591;exitY=1.011;exitDx=0;exitDy=0;exitPerimeter=0;" edge="1" parent="1" source="aKizHm-7mSLxc9vcDoLu-2" target="aKizHm-7mSLxc9vcDoLu-12">
          <mxGeometry width="50" height="50" relative="1" as="geometry">
            <mxPoint x="-3796.4500000000003" y="450" as="sourcePoint" />
            <mxPoint x="-3911.4500000000003" y="486" as="targetPoint" />
          </mxGeometry>
        </mxCell>
        <mxCell id="aKizHm-7mSLxc9vcDoLu-49" value="purchase_order_detail" style="whiteSpace=wrap;html=1;align=center;" vertex="1" parent="1">
          <mxGeometry x="-3725" y="470" width="140" height="40" as="geometry" />
        </mxCell>
        <mxCell id="aKizHm-7mSLxc9vcDoLu-50" value="products_id" style="ellipse;whiteSpace=wrap;html=1;align=center;" vertex="1" parent="1">
          <mxGeometry x="-3515" y="560" width="100" height="40" as="geometry" />
        </mxCell>
        <mxCell id="aKizHm-7mSLxc9vcDoLu-51" value="purchase_order_id" style="ellipse;whiteSpace=wrap;html=1;align=center;" vertex="1" parent="1">
          <mxGeometry x="-3443" y="520" width="100" height="40" as="geometry" />
        </mxCell>
        <mxCell id="aKizHm-7mSLxc9vcDoLu-52" value="quantity" style="ellipse;whiteSpace=wrap;html=1;align=center;" vertex="1" parent="1">
          <mxGeometry x="-3605" y="590" width="100" height="40" as="geometry" />
        </mxCell>
        <mxCell id="aKizHm-7mSLxc9vcDoLu-53" value="&lt;u&gt;id&lt;/u&gt;" style="ellipse;whiteSpace=wrap;html=1;align=center;" vertex="1" parent="1">
          <mxGeometry x="-3450" y="470" width="100" height="40" as="geometry" />
        </mxCell>
        <mxCell id="aKizHm-7mSLxc9vcDoLu-54" value="subtotal" style="ellipse;whiteSpace=wrap;html=1;align=center;" vertex="1" parent="1">
          <mxGeometry x="-3905" y="580" width="100" height="40" as="geometry" />
        </mxCell>
        <mxCell id="aKizHm-7mSLxc9vcDoLu-55" value="" style="endArrow=none;html=1;rounded=0;entryX=1;entryY=0;entryDx=0;entryDy=0;exitX=0.124;exitY=0.997;exitDx=0;exitDy=0;exitPerimeter=0;" edge="1" parent="1" source="aKizHm-7mSLxc9vcDoLu-49" target="aKizHm-7mSLxc9vcDoLu-54">
          <mxGeometry width="50" height="50" relative="1" as="geometry">
            <mxPoint x="-3592.5" y="680" as="sourcePoint" />
            <mxPoint x="-3012.5" y="850" as="targetPoint" />
          </mxGeometry>
        </mxCell>
        <mxCell id="aKizHm-7mSLxc9vcDoLu-56" value="" style="endArrow=none;html=1;rounded=0;entryX=0;entryY=0.5;entryDx=0;entryDy=0;exitX=1;exitY=0.5;exitDx=0;exitDy=0;" edge="1" parent="1" source="aKizHm-7mSLxc9vcDoLu-49" target="aKizHm-7mSLxc9vcDoLu-53">
          <mxGeometry width="50" height="50" relative="1" as="geometry">
            <mxPoint x="-3512.5" y="710" as="sourcePoint" />
            <mxPoint x="-3462.5" y="680" as="targetPoint" />
          </mxGeometry>
        </mxCell>
        <mxCell id="aKizHm-7mSLxc9vcDoLu-57" value="" style="endArrow=none;html=1;rounded=0;exitX=0.631;exitY=0.995;exitDx=0;exitDy=0;entryX=0;entryY=0;entryDx=0;entryDy=0;exitPerimeter=0;" edge="1" parent="1" source="aKizHm-7mSLxc9vcDoLu-49" target="aKizHm-7mSLxc9vcDoLu-52">
          <mxGeometry width="50" height="50" relative="1" as="geometry">
            <mxPoint x="-3502.5" y="740" as="sourcePoint" />
            <mxPoint x="-3452.5" y="720" as="targetPoint" />
          </mxGeometry>
        </mxCell>
        <mxCell id="aKizHm-7mSLxc9vcDoLu-58" value="" style="endArrow=none;html=1;rounded=0;exitX=1;exitY=0.75;exitDx=0;exitDy=0;" edge="1" parent="1" source="aKizHm-7mSLxc9vcDoLu-49">
          <mxGeometry width="50" height="50" relative="1" as="geometry">
            <mxPoint x="-3542.5" y="770" as="sourcePoint" />
            <mxPoint x="-3435" y="530" as="targetPoint" />
          </mxGeometry>
        </mxCell>
        <mxCell id="aKizHm-7mSLxc9vcDoLu-59" value="" style="endArrow=none;html=1;rounded=0;entryX=0.327;entryY=0.035;entryDx=0;entryDy=0;exitX=0.894;exitY=0.995;exitDx=0;exitDy=0;entryPerimeter=0;exitPerimeter=0;" edge="1" parent="1" source="aKizHm-7mSLxc9vcDoLu-49" target="aKizHm-7mSLxc9vcDoLu-50">
          <mxGeometry width="50" height="50" relative="1" as="geometry">
            <mxPoint x="-3612.5" y="740" as="sourcePoint" />
            <mxPoint x="-3602.5" y="840" as="targetPoint" />
          </mxGeometry>
        </mxCell>
        <mxCell id="aKizHm-7mSLxc9vcDoLu-60" value="unit_price" style="ellipse;whiteSpace=wrap;html=1;align=center;" vertex="1" parent="1">
          <mxGeometry x="-3805" y="580" width="100" height="40" as="geometry" />
        </mxCell>
        <mxCell id="aKizHm-7mSLxc9vcDoLu-61" value="" style="endArrow=none;html=1;rounded=0;entryX=0.741;entryY=0.004;entryDx=0;entryDy=0;exitX=0.287;exitY=0.984;exitDx=0;exitDy=0;entryPerimeter=0;exitPerimeter=0;" edge="1" parent="1" source="aKizHm-7mSLxc9vcDoLu-49" target="aKizHm-7mSLxc9vcDoLu-60">
          <mxGeometry width="50" height="50" relative="1" as="geometry">
            <mxPoint x="-3512.5" y="830" as="sourcePoint" />
            <mxPoint x="-3452.5" y="947" as="targetPoint" />
          </mxGeometry>
        </mxCell>
        <mxCell id="aKizHm-7mSLxc9vcDoLu-62" value="created_at" style="ellipse;whiteSpace=wrap;html=1;align=center;" vertex="1" parent="1">
          <mxGeometry x="-3935" y="538" width="100" height="40" as="geometry" />
        </mxCell>
        <mxCell id="aKizHm-7mSLxc9vcDoLu-63" value="updated_at" style="ellipse;whiteSpace=wrap;html=1;align=center;" vertex="1" parent="1">
          <mxGeometry x="-3935" y="490" width="100" height="40" as="geometry" />
        </mxCell>
        <mxCell id="aKizHm-7mSLxc9vcDoLu-64" value="" style="endArrow=none;html=1;rounded=0;entryX=1;entryY=0;entryDx=0;entryDy=0;exitX=0;exitY=1;exitDx=0;exitDy=0;" edge="1" parent="1" source="aKizHm-7mSLxc9vcDoLu-49" target="aKizHm-7mSLxc9vcDoLu-62">
          <mxGeometry width="50" height="50" relative="1" as="geometry">
            <mxPoint x="-3585.5" y="800" as="sourcePoint" />
            <mxPoint x="-3682.5" y="904" as="targetPoint" />
          </mxGeometry>
        </mxCell>
        <mxCell id="aKizHm-7mSLxc9vcDoLu-65" value="" style="endArrow=none;html=1;rounded=0;entryX=1;entryY=0.5;entryDx=0;entryDy=0;exitX=0;exitY=0.5;exitDx=0;exitDy=0;" edge="1" parent="1" source="aKizHm-7mSLxc9vcDoLu-49" target="aKizHm-7mSLxc9vcDoLu-63">
          <mxGeometry width="50" height="50" relative="1" as="geometry">
            <mxPoint x="-3607.5" y="740" as="sourcePoint" />
            <mxPoint x="-3722.5" y="776" as="targetPoint" />
          </mxGeometry>
        </mxCell>
        <mxCell id="aKizHm-7mSLxc9vcDoLu-66" value="" style="endArrow=none;html=1;rounded=0;entryX=0.5;entryY=1;entryDx=0;entryDy=0;exitX=0.5;exitY=0;exitDx=0;exitDy=0;" edge="1" parent="1" source="aKizHm-7mSLxc9vcDoLu-49" target="aKizHm-7mSLxc9vcDoLu-2">
          <mxGeometry width="50" height="50" relative="1" as="geometry">
            <mxPoint x="-3670" y="320" as="sourcePoint" />
            <mxPoint x="-3620" y="270" as="targetPoint" />
            <Array as="points">
              <mxPoint x="-3655" y="440" />
              <mxPoint x="-3796" y="440" />
            </Array>
          </mxGeometry>
        </mxCell>
        <mxCell id="aKizHm-7mSLxc9vcDoLu-67" value="" style="endArrow=none;html=1;rounded=0;entryX=1;entryY=0.75;entryDx=0;entryDy=0;exitX=0;exitY=0.25;exitDx=0;exitDy=0;" edge="1" parent="1" source="aKizHm-7mSLxc9vcDoLu-49" target="XI2xmRr-VkAx-h7ioAOE-699">
          <mxGeometry width="50" height="50" relative="1" as="geometry">
            <mxPoint x="-3670" y="320" as="sourcePoint" />
            <mxPoint x="-3620" y="270" as="targetPoint" />
            <Array as="points">
              <mxPoint x="-3890" y="480" />
              <mxPoint x="-3890" y="200" />
              <mxPoint x="-3800" y="200" />
              <mxPoint x="-3800" y="99" />
            </Array>
          </mxGeometry>
        </mxCell>
        <mxCell id="aKizHm-7mSLxc9vcDoLu-68" value="&lt;b&gt;1&lt;/b&gt;" style="text;html=1;align=center;verticalAlign=middle;resizable=0;points=[];autosize=1;strokeColor=none;fillColor=none;fontSize=14;" vertex="1" parent="1">
          <mxGeometry x="-3825" y="266" width="30" height="30" as="geometry" />
        </mxCell>
        <mxCell id="aKizHm-7mSLxc9vcDoLu-69" value="&lt;b&gt;M&lt;/b&gt;" style="text;html=1;align=center;verticalAlign=middle;resizable=0;points=[];autosize=1;strokeColor=none;fillColor=none;fontSize=14;" vertex="1" parent="1">
          <mxGeometry x="-3691.1" y="440" width="40" height="30" as="geometry" />
        </mxCell>
        <mxCell id="aKizHm-7mSLxc9vcDoLu-72" value="Melakukan" style="shape=rhombus;perimeter=rhombusPerimeter;whiteSpace=wrap;html=1;align=center;" vertex="1" parent="1">
          <mxGeometry x="-3855.55" y="370" width="120" height="60" as="geometry" />
        </mxCell>
        <mxCell id="aKizHm-7mSLxc9vcDoLu-73" value="&lt;b&gt;1&lt;/b&gt;" style="text;html=1;align=center;verticalAlign=middle;resizable=0;points=[];autosize=1;strokeColor=none;fillColor=none;fontSize=14;" vertex="1" parent="1">
          <mxGeometry x="-3830" y="100" width="30" height="30" as="geometry" />
        </mxCell>
        <mxCell id="aKizHm-7mSLxc9vcDoLu-76" value="Memiliki" style="shape=rhombus;perimeter=rhombusPerimeter;whiteSpace=wrap;html=1;align=center;" vertex="1" parent="1">
          <mxGeometry x="-3950" y="305" width="120" height="60" as="geometry" />
        </mxCell>
        <mxCell id="aKizHm-7mSLxc9vcDoLu-77" value="&lt;b&gt;M&lt;/b&gt;" style="text;html=1;align=center;verticalAlign=middle;resizable=0;points=[];autosize=1;strokeColor=none;fillColor=none;fontSize=14;" vertex="1" parent="1">
          <mxGeometry x="-3760" y="450" width="40" height="30" as="geometry" />
        </mxCell>
        <mxCell id="aKizHm-7mSLxc9vcDoLu-80" value="" style="endArrow=none;html=1;rounded=0;entryX=0.5;entryY=0;entryDx=0;entryDy=0;exitX=1;exitY=0.75;exitDx=0;exitDy=0;" edge="1" parent="1" source="aKizHm-7mSLxc9vcDoLu-2" target="XI2xmRr-VkAx-h7ioAOE-559">
          <mxGeometry width="50" height="50" relative="1" as="geometry">
            <mxPoint x="-3740" y="250" as="sourcePoint" />
            <mxPoint x="-3400" y="-50" as="targetPoint" />
            <Array as="points">
              <mxPoint x="-3410" y="256" />
              <mxPoint x="-3410" y="170" />
              <mxPoint x="-2570" y="170" />
              <mxPoint x="-2570" y="310" />
              <mxPoint x="-2390" y="310" />
              <mxPoint x="-2390" y="400" />
              <mxPoint x="-2190" y="400" />
              <mxPoint x="-2190" y="-220" />
              <mxPoint x="-2429" y="-220" />
            </Array>
          </mxGeometry>
        </mxCell>
        <mxCell id="aKizHm-7mSLxc9vcDoLu-82" value="&lt;b&gt;1&lt;/b&gt;" style="text;html=1;align=center;verticalAlign=middle;resizable=0;points=[];autosize=1;strokeColor=none;fillColor=none;fontSize=14;" vertex="1" parent="1">
          <mxGeometry x="-2460" y="-130" width="30" height="30" as="geometry" />
        </mxCell>
        <mxCell id="aKizHm-7mSLxc9vcDoLu-83" value="Melakukan" style="shape=rhombus;perimeter=rhombusPerimeter;whiteSpace=wrap;html=1;align=center;" vertex="1" parent="1">
          <mxGeometry x="-2250" y="90" width="120" height="60" as="geometry" />
        </mxCell>
        <mxCell id="aKizHm-7mSLxc9vcDoLu-84" value="&lt;b&gt;M&lt;/b&gt;" style="text;html=1;align=center;verticalAlign=middle;resizable=0;points=[];autosize=1;strokeColor=none;fillColor=none;fontSize=14;" vertex="1" parent="1">
          <mxGeometry x="-3750" y="235" width="40" height="30" as="geometry" />
        </mxCell>
      </root>
    </mxGraphModel>
  </diagram>
</mxfile>
